<?xml version="1.0" encoding="UTF-8" standalone="no"?>
<!-- Created with Inkscape (http://www.inkscape.org/) -->

<svg
   xmlns:dc="http://purl.org/dc/elements/1.1/"
   xmlns:cc="http://creativecommons.org/ns#"
   xmlns:rdf="http://www.w3.org/1999/02/22-rdf-syntax-ns#"
   xmlns:svg="http://www.w3.org/2000/svg"
   xmlns="http://www.w3.org/2000/svg"
   xmlns:sodipodi="http://sodipodi.sourceforge.net/DTD/sodipodi-0.dtd"
   xmlns:inkscape="http://www.inkscape.org/namespaces/inkscape"
   width="85.191376mm"
   height="86.700851mm"
   viewBox="0 0 85.191377 86.700849"
   version="1.1"
   id="svg16730"
   inkscape:version="0.92.3 (2405546, 2018-03-11)"
   sodipodi:docname="icoGobClaro.svg">
  <defs
     id="defs16724" />
  <sodipodi:namedview
     id="base"
     pagecolor="#ffffff"
     bordercolor="#666666"
     borderopacity="1.0"
     inkscape:pageopacity="0.0"
     inkscape:pageshadow="2"
     inkscape:zoom="0.35"
     inkscape:cx="-141.32835"
     inkscape:cy="85.479095"
     inkscape:document-units="mm"
     inkscape:current-layer="layer1"
     showgrid="false"
     inkscape:window-width="1920"
     inkscape:window-height="1027"
     inkscape:window-x="-8"
     inkscape:window-y="-8"
     inkscape:window-maximized="1" />
  <metadata
     id="metadata16727">
    <rdf:RDF>
      <cc:Work
         rdf:about="">
        <dc:format>image/svg+xml</dc:format>
        <dc:type
           rdf:resource="http://purl.org/dc/dcmitype/StillImage" />
        <dc:title></dc:title>
      </cc:Work>
    </rdf:RDF>
  </metadata>
  <g
     inkscape:label="Capa 1"
     inkscape:groupmode="layer"
     id="layer1"
     transform="translate(2.2943729,-84.748832)">
    <path
       inkscape:connector-curvature="0"
       style="fill:#d3d2d1;fill-opacity:1;fill-rule:nonzero;stroke:none;stroke-width:0.44986933"
       d="m 40.286165,84.748832 -1.19211,2.414538 -2.664949,0.387485 1.928861,1.879433 -0.455362,2.653759 2.38356,-1.252747 2.382901,1.252747 -0.4547,-2.653759 1.928198,-1.879433 -2.664948,-0.387485 z m 17.353137,4.473855 -1.19145,2.415221 -2.664947,0.386822 1.928857,1.879433 -0.455362,2.654422 2.382902,-1.253411 2.383563,1.253411 -0.455359,-2.654422 1.928853,-1.879433 -2.664944,-0.386822 z m -34.766244,0.0098 -1.192109,2.415221 -2.664948,0.387465 1.928857,1.879453 -0.455361,2.653739 2.383561,-1.252728 2.382902,1.252728 -0.454701,-2.653739 1.9282,-1.879453 -2.664949,-0.387485 z m 48.199725,10.866743 -1.192113,2.4152 -2.664948,0.3868 1.928857,1.87944 -0.455361,2.65442 2.383565,-1.25273 2.383557,1.25273 -0.455361,-2.65442 1.928199,-1.87944 -2.664947,-0.3868 z m -61.4322093,0.0197 -1.1921112,2.41452 -2.6649474,0.3875 1.9282016,1.87944 -0.4547022,2.65374 2.3835592,-1.25275 2.3829023,1.25275 -0.454703,-2.65374 1.927539,-1.87944 -2.664286,-0.3875 z m 30.4030833,1.8366 v 0.0137 c -0.115163,0.63297 -0.546959,1.30875 -0.546959,1.30875 0.260061,0.13713 0.491648,0.62251 0.515988,0.67414 -0.0014,1e-4 -0.0027,-1.3e-4 -0.0039,0 -0.184429,-0.1775 -0.398124,-0.30247 -0.657014,-0.30247 -0.143953,0 -0.446238,0.31707 -0.460632,0.51862 0,0.1578 0.302827,0.3883 0.475129,0.31631 0.08717,-0.0386 0.14961,-0.0749 0.216808,-0.11119 -0.103615,0.0734 -0.195402,0.17361 -0.24514,0.21354 -0.12911,0.11527 -0.330965,0.2444 -0.258984,0.35914 0.06938,0.13322 0.146041,0.21162 0.22669,0.26294 -0.233747,0.41225 -1.199968,3.16885 -1.244828,3.75557 -0.02428,0.29196 -0.0059,2.48181 0.139701,2.83497 l 0.04283,0.10416 -0.05799,0.0975 c -0.002,0.001 -0.01346,0.008 -0.01385,0.01 l 0.0045,0.006 -3.632345,6.07654 -6.920695,-7.18231 c 0.01976,-0.0117 0.0381,-0.0256 0.05273,-0.0322 0.215489,-0.0577 0.40084,-0.0581 0.693257,-0.10104 0.200644,-0.0289 0.32301,-0.40243 0.215488,-0.53246 -0.107965,-0.14395 -0.569403,-0.24452 -0.708412,-0.15799 -0.282328,0.18003 -0.377123,0.48199 -0.411865,0.81253 l -0.01443,0.0156 -0.0014,-0.001 v 0.004 l -0.06655,0.0745 0.06129,0.0646 -0.0051,0.15351 c -0.001,0.0224 -0.0047,0.0458 -0.0059,0.0687 -0.06045,0.061 -0.142354,0.14571 -0.142354,0.14571 -0.13855,0.10085 -0.231098,0.33166 -0.277432,0.41713 -0.09222,0.1582 -0.231202,0.34528 -0.123239,0.43165 0.177543,0.13927 0.326221,0.16385 0.471179,0.16151 0.001,0.0224 -0.0017,0.0447 0,0.0671 0.05624,1.09182 -0.124369,2.37781 -0.282705,3.51239 -0.06074,0.44268 -0.120039,0.86752 -0.162777,1.25799 -0.127763,1.14584 -0.0884,1.95602 -0.04611,2.8139 0.02471,0.5025 0.05132,1.02221 0.04547,1.64484 0,0.2218 0.03019,0.68583 0.09027,1.40562 l -4.913414,-2.97204 -0.01522,0.0209 -0.02766,-0.0176 c 0.171964,-0.20334 0.306603,-0.44639 0.560139,-0.5911 0.301864,-0.17263 0.488576,-0.79157 0.589796,-1.39575 0,0 -0.848532,0.20085 -1.093265,0.24449 6.2e-5,-2.5e-4 -5.7e-5,-0.001 0,-0.001 0.03367,-0.19291 -0.06655,-0.63915 -0.117972,-0.85603 0.201256,-0.3609 0.405819,-0.71556 0.612201,-1.07086 0.0035,0.01 0.0055,0.0197 0.0092,0.0291 0.115163,0.34506 0.949612,-0.3455 1.136755,-0.5898 0.201543,-0.25913 0.503467,-0.64777 0.503467,-0.64777 0,0 0.474942,-0.57495 0.604952,-0.80528 0.301862,-0.54659 0.229727,-1.53946 0.100163,-1.45309 -0.07153,0.0455 -0.231063,0.13615 -0.388144,0.22276 0.15082,-0.2379 0.359307,-0.56755 0.367718,-0.58058 0.05175,0.033 0.110617,0.0568 0.178596,0.0568 0.187139,0 0.330155,-0.14297 0.330155,-0.33015 0,-0.18706 -0.142998,-0.33147 -0.330155,-0.33147 -0.18714,0 -0.331472,0.14415 -0.331472,0.33147 0,0.11781 0.06072,0.21318 0.14961,0.27152 -0.157393,0.1964 -0.325323,0.41844 -0.497539,0.65304 -0.132016,0.0706 -0.271267,0.14493 -0.327514,0.16736 -0.06788,0.0175 -0.159909,0.0511 -0.250417,0.0975 -0.09468,-0.36566 -0.19572,-0.80267 -0.19572,-0.80267 0,0 -0.359562,0.34518 -0.604291,0.60429 -0.258675,0.2443 -0.301871,0.44544 -0.402643,0.74729 -0.100767,0.30233 -0.301867,0.50413 -0.402641,0.74796 -0.101216,0.24429 1.99e-4,0.74858 0.05735,1.05043 0.04319,0.30232 0,0.59044 0,0.59044 0,0 0.04276,-0.0318 0.0481,-0.0355 -0.19262,0.32023 -0.382144,0.63794 -0.564752,0.95687 -0.317773,0.1576 -0.895134,0.59615 -1.267892,0.96803 -0.139135,-0.32557 -0.516649,-1.18354 -0.516649,-1.18354 0.05713,0.30186 -0.705421,1.35089 -0.748611,1.59606 -0.05713,0.25866 -0.143642,0.54632 -0.143642,0.94896 0,0.40352 0.04278,0.74891 0.344648,1.00759 0.302313,0.24473 0.216859,1.20793 0.345969,0.99243 6.77e-4,-10e-4 0.0014,-0.002 0.002,-0.004 -0.18792,0.83115 -0.350263,1.76307 -0.465902,2.80004 -0.0023,-0.01 -0.008,-0.0248 -0.0099,-0.0335 -0.02834,-0.2155 0.144305,-0.18687 -0.01443,-0.74796 -0.115163,-0.41748 -0.431182,-0.54696 -0.459973,-0.76244 -0.04321,-0.20156 -0.302784,-0.24422 -0.561462,-0.76245 -0.158349,-0.27306 -0.445474,-0.71961 -0.445474,-0.71961 0,0 -0.331021,0.70426 -0.546957,1.23693 -0.05352,0.14122 -0.07315,0.28851 -0.0725,0.43229 -0.06757,-0.0523 -0.12751,-0.10963 -0.17134,-0.17536 -0.1579,-0.24427 -0.632629,-0.48898 -0.632629,-0.48898 -0.100767,0.17263 -0.14407,1.25193 -0.17331,1.53941 -0.04274,0.28793 0.158544,0.93492 0.244485,1.12159 0.100768,0.17263 0.215697,0.46065 0.431633,0.86329 0.215489,0.41657 0.877143,1.02127 1.841217,1.30875 0.172744,0.0523 0.299008,0.12211 0.391439,0.199 -0.0017,0.13147 -0.0059,0.2589 -0.0059,0.39275 0,0.80382 0.142822,1.74174 0.332133,2.65243 -0.05064,-0.0747 -0.09763,-0.14492 -0.129168,-0.20756 -0.100768,-0.2011 -0.100319,-0.15761 -0.243826,-0.74797 -0.1579,-0.60416 -0.561302,-0.60353 -0.661625,-0.80462 -0.100767,-0.20198 -0.64729,-0.40366 -0.949602,-0.54763 -0.287915,-0.14395 -0.48897,-0.74858 -0.48897,-0.74858 0,-2e-5 -1.97e-4,0.99276 -0.05733,1.59736 -0.01873,0.25976 0.03657,0.46867 0.119279,0.63724 -0.173271,-0.0445 -0.345801,-0.0942 -0.465905,-0.19311 -0.244276,-0.202 -0.805943,-0.30248 -0.805943,-0.30248 -0.04319,0.20156 0.259292,1.30883 0.302478,1.59672 0.05713,0.30187 0.44573,0.9065 0.603632,1.05043 0.143973,0.1578 0.346019,0.40293 0.690622,0.74795 0.359894,0.35946 1.208806,0.76247 2.258351,0.76247 0.277686,0 0.465914,0.0659 0.594407,0.15683 0.07668,0.26559 0.161919,0.55681 0.19637,0.69458 0.111749,0.43625 0.258481,0.96765 0.430983,1.54072 -0.279498,-0.37368 -0.761413,-0.46196 -1.320612,-0.54894 -0.3455,-0.0581 -1.697556,-0.40332 -1.697556,-0.40332 0.323658,0.23791 0.520796,0.8998 0.721594,1.49854 -0.778637,-0.15878 -1.570372,-0.002 -1.570372,-0.002 0.143524,0.10045 1.193129,1.00633 1.337087,1.50975 0.158349,0.48902 0.705478,1.39513 0.849437,1.49589 0.158349,0.10085 0.6038,0.64795 0.90611,0.95027 0.30186,0.30186 1.495461,0.14298 1.898545,0.14298 0.252911,0 0.658223,0.20392 0.914676,0.29193 0.188232,0.25734 0.476089,0.57363 0.848117,0.93248 -0.279162,-0.0804 -0.561015,-0.18648 -0.682053,-0.33147 -0.195305,-0.26506 0.02875,0.88142 0.252393,1.25406 -0.326285,-0.0299 -0.674093,-0.0934 -0.872501,-0.24646 -0.330204,-0.25959 -0.04248,0.90624 0.316976,1.23691 0.774869,0.69049 0.705408,0.79871 0.829663,0.84546 -0.652865,0.13147 -1.56115,0.35374 -1.838578,0.18979 -0.359892,-0.20198 0.40261,0.50273 0.863277,0.67547 0.661308,0.24474 0.57557,0.67688 1.294913,0.90676 0.762076,0.24476 1.568044,0.54704 2.013867,0.46065 0.345501,-0.072 0.603591,-0.23029 1.092604,-0.27348 0.435659,-0.0532 1.177066,-0.63421 2.019798,-0.74003 0.808908,0.49584 1.634538,0.95805 2.440235,1.34499 0.03057,0.0156 0.09219,0.041 0.132445,0.0593 -0.08815,0.008 -0.181619,0.0175 -0.288634,0.0402 -0.301866,0.0716 -1.539112,0.34543 -1.841877,0.20103 -0.272509,-0.14318 0.308238,0.65908 0.6781,0.9654 -0.587973,0.11158 -1.403548,0.19912 -1.685691,0.12835 -0.402635,-0.0864 0.805801,1.07837 1.280414,1.20793 0.04445,0.0117 0.05499,0.0156 0.0962,0.0277 -0.360312,0.11509 -0.694192,0.2079 -0.859981,0.1977 -0.417024,-0.0293 1.323771,1.10727 1.79838,1.03527 1.525056,-0.21593 2.963435,0.30131 3.667932,0.0137 0.632966,-0.24472 1.007648,-0.41653 1.323903,-0.5173 0.316262,-0.11528 0.489531,-0.40254 0.690622,-0.54695 0.18041,-0.14161 0.309178,-0.469 1.142685,-0.76311 0.0293,0.0581 0.05142,0.0936 0.05142,0.0936 0,0 0.424144,0.0252 0.898859,0.025 0.137126,0.0345 0.27967,0.079 0.420436,0.11918 -0.112998,0.0648 -0.233889,0.14688 -0.364419,0.25106 -0.913276,0.28192 -1.723464,0.54346 -1.945993,0.65505 -0.605524,0.30142 -2.144356,1.65371 -2.546991,2.09954 0,0 0.323294,-0.0252 0.672169,-0.0501 0.348873,-0.0252 0.722965,-0.0501 0.823739,-0.0501 0.151073,0 0.440012,-0.50146 0.659644,-0.81912 0,0 0,-6.8e-4 0,-6.8e-4 0.0365,-0.0529 0.07172,-0.10026 0.10346,-0.13966 0,0 0,-6.8e-4 0,-6.8e-4 0.03172,-0.0394 0.06061,-0.07 0.08567,-0.0897 0.07155,-0.0511 0.55662,-0.29594 1.236922,-0.60164 -0.973433,1.4553 0.35981,2.6577 0.35981,2.6577 -0.345052,-0.40264 0.04283,-1.10776 0.04283,-1.10776 l 0.704457,0.44547 c -0.757205,-1.29671 0.09813,-2.2712 0.635922,-2.71834 0.149591,-0.0566 0.301132,-0.10767 0.453384,-0.16209 0.07529,0.0453 0.20047,0.0511 0.345311,0.0429 0.411516,0.14942 0.815456,0.30355 1.191452,0.45931 0.07165,0.15292 0.122575,0.33019 0.122575,0.53709 0,0.74768 0.302805,2.10081 0.907432,2.40266 0,0 0.143095,-0.56152 0.344648,-0.66228 0,0 0.603639,0.70512 0.790787,0.70512 0,0 -0.34465,-0.64729 -0.34465,-0.94961 0,-0.22863 -0.172315,-0.93956 -0.38683,-1.39836 0.383654,0.1818 0.635967,0.31325 0.686669,0.34925 0.201092,0.15781 0.647684,1.05044 0.848776,1.05044 0.201991,0 1.495904,0.10026 1.495904,0.10026 -0.402635,-0.44581 -1.941255,-1.79812 -2.546332,-2.09954 -0.189734,-0.095 -0.812788,-0.30055 -1.544667,-0.53113 -0.207309,-0.1539 -0.443619,-0.29184 -0.705776,-0.39277 0.0035,-9.9e-4 0.0068,-0.002 0.01073,-0.004 0.05298,-0.0156 0.107653,-0.0326 0.160124,-0.0468 0.303182,-0.006 0.526942,-0.0735 0.701822,-0.166 0.09656,-0.0197 0.194026,-0.039 0.286661,-0.0534 0.01834,-0.002 0.04003,-0.008 0.05865,-0.0117 1.002898,0.3087 1.139627,0.67214 1.333133,0.82374 0.201095,0.14434 0.374362,0.4318 0.690619,0.54696 0.316261,0.10085 0.690074,0.27258 1.322588,0.5173 0.704949,0.28746 2.143982,-0.22976 3.66859,-0.0137 0.475063,0.072 2.215409,-1.06449 1.798379,-1.03523 -0.172959,0.01 -0.526835,-0.0895 -0.90611,-0.21287 0.01976,-0.006 0.0238,-0.006 0.04414,-0.0117 0.475062,-0.12971 1.683047,-1.29431 1.280412,-1.20794 -0.282063,0.0708 -1.09709,-0.0175 -1.685033,-0.12835 0.369863,-0.3063 0.95061,-1.10836 0.678101,-0.9654 -0.302312,0.14434 -1.5398,-0.12933 -1.841211,-0.20099 -0.106795,-0.0219 -0.200638,-0.0332 -0.288639,-0.0402 0.04028,-0.0176 0.10188,-0.0445 0.132446,-0.0593 0.805593,-0.3869 1.631386,-0.84913 2.440233,-1.34499 0.842111,0.10611 1.58293,0.68674 2.018481,0.74005 0.489005,0.0433 0.748211,0.2015 1.093259,0.27348 0.44627,0.0864 1.251339,-0.2159 2.01387,-0.46064 0.719338,-0.22987 0.633606,-0.66205 1.294911,-0.90677 0.460214,-0.17262 1.22272,-0.87743 0.863277,-0.67545 -0.277667,0.16405 -1.185197,-0.0585 -1.837921,-0.18979 0.124136,-0.0468 0.05499,-0.15507 0.829668,-0.84548 0.359445,-0.33065 0.646968,-1.49652 0.316316,-1.23693 -0.198198,0.15312 -0.546162,0.21669 -0.872503,0.24646 0.223629,-0.37263 0.44769,-1.51909 0.252394,-1.25406 -0.121131,0.14493 -0.402814,0.25098 -0.682053,0.33148 0.03033,-0.0292 0.06499,-0.0608 0.09423,-0.0897 0.329344,-0.32333 0.580988,-0.60652 0.75388,-0.84285 0.256524,-0.088 0.662048,-0.29193 0.914677,-0.29193 0.403084,0 1.596685,0.15897 1.898547,-0.14298 0.301859,-0.30232 0.747755,-0.8495 0.906107,-0.95025 0.143954,-0.10084 0.691534,-1.00691 0.849438,-1.49592 0.143973,-0.50339 1.193336,-1.40942 1.337744,-1.50974 0,0 -0.792182,-0.15722 -1.571027,0.002 0.200899,-0.59871 0.398232,-1.26063 0.721596,-1.49852 0,0 -1.352056,0.34525 -1.697556,0.40328 -0.559219,0.087 -1.041411,0.17536 -1.320615,0.54894 0.172491,-0.57307 0.319238,-1.10445 0.430979,-1.54072 0.03451,-0.1379 0.11963,-0.4293 0.196372,-0.69522 0.128408,-0.0905 0.316739,-0.15605 0.593746,-0.15605 1.049995,0 1.89891,-0.40299 2.258355,-0.76245 0.34505,-0.34504 0.546661,-0.59003 0.69062,-0.74793 0.158349,-0.14415 0.547156,-0.74858 0.604289,-1.05044 0.04319,-0.28792 0.345214,-1.39519 0.30248,-1.59673 0,0 -0.561664,0.10046 -0.805943,0.30248 -0.120176,0.0987 -0.292169,0.14883 -0.465247,0.19311 0.08261,-0.16853 0.137848,-0.37758 0.119279,-0.63726 -0.05758,-0.60463 -0.05799,-1.59738 -0.05799,-1.59738 0,0 -0.201052,0.60465 -0.48897,0.74862 -0.301862,0.14376 -0.848172,0.3456 -0.948943,0.54761 -0.100319,0.2011 -0.504378,0.20044 -0.662284,0.80464 -0.143505,0.59021 -0.143505,0.54684 -0.243824,0.74793 -0.03168,0.0626 -0.07849,0.13303 -0.129168,0.2076 0.05721,-0.27511 0.112412,-0.552 0.158154,-0.82769 0,0 0,-7e-4 0,-7e-4 0.05278,-0.31828 0.09624,-0.63412 0.126515,-0.94035 0,0 0,-7e-4 0,-7e-4 0.01502,-0.15292 0.02686,-0.30335 0.03493,-0.45074 0,0 0,-6.8e-4 0,-6.8e-4 0.0082,-0.14747 0.01248,-0.29156 0.01248,-0.43163 0,0 0,-6.8e-4 0,-6.8e-4 0,-0.13381 -0.0043,-0.26082 -0.0059,-0.39209 0.09244,-0.077 0.218702,-0.14668 0.391439,-0.19904 0.963621,-0.28746 1.625725,-0.89216 1.841213,-1.30873 0.215936,-0.40264 0.330416,-0.69053 0.431636,-0.86327 0.08592,-0.18667 0.287014,-0.8337 0.243828,-1.12159 -0.02879,-0.2875 -0.07188,-1.36666 -0.172666,-1.53941 0,0 -0.474277,0.24469 -0.632629,0.48896 -0.04383,0.0655 -0.103752,0.12308 -0.17134,0.17536 6.75e-4,-0.14396 -0.01873,-0.29095 -0.0725,-0.43229 -0.215483,-0.53263 -0.546959,-1.23693 -0.546959,-1.23693 0,0 -0.287121,0.44655 -0.445476,0.71961 -0.259124,0.51825 -0.51827,0.56091 -0.561456,0.76247 -0.02879,0.21546 -0.345467,0.34496 -0.460636,0.76242 -0.158349,0.56101 0.01443,0.53248 -0.01385,0.74798 -0.002,0.01 -0.0074,0.0244 -0.0099,0.0336 -0.06632,-0.59407 -0.146782,-1.1574 -0.239872,-1.68371 -0.06942,-0.39242 -0.146333,-0.76132 -0.22669,-1.11635 6.73e-4,0.001 0.002,0.002 0.0027,0.004 0.12911,0.21548 0.04319,-0.74772 0.345969,-0.99245 0.301413,-0.25864 0.344648,-0.60403 0.344648,-1.00757 0,-0.40262 -0.08653,-0.69026 -0.143642,-0.94895 -0.04363,-0.24518 -0.806191,-1.29419 -0.748609,-1.59607 0,0 -0.377514,0.85799 -0.516649,1.18354 -0.372758,-0.37188 -0.950119,-0.81043 -1.267892,-0.96805 -0.182595,-0.31889 -0.372135,-0.63662 -0.564754,-0.95685 0.0053,0.004 0.04812,0.0355 0.04812,0.0355 0,0 -0.04319,-0.28814 0,-0.59044 0.05758,-0.30189 0.158095,-0.80618 0.05735,-1.05043 -0.100767,-0.24385 -0.301871,-0.44565 -0.402643,-0.74796 -0.100767,-0.30187 -0.144187,-0.50301 -0.4033,-0.74729 -0.244278,-0.25913 -0.603632,-0.60429 -0.603632,-0.60429 0,0 -0.100845,0.43699 -0.195718,0.80263 -0.09047,-0.0464 -0.182536,-0.0788 -0.250419,-0.0975 -0.05637,-0.0224 -0.195777,-0.0971 -0.328171,-0.16795 -0.172081,-0.23436 -0.339592,-0.4561 -0.49688,-0.65239 0.08908,-0.0583 0.149884,-0.15371 0.149572,-0.2715 0,-0.18706 -0.143876,-0.33147 -0.331472,-0.33147 -0.186691,0 -0.330153,0.14415 -0.330153,0.33147 0,0.18706 0.143466,0.33017 0.330153,0.33017 0.06806,0 0.126827,-0.0238 0.178596,-0.0566 0.0086,0.0136 0.216878,0.3427 0.367717,0.58055 -0.157081,-0.0866 -0.316612,-0.17731 -0.388144,-0.22272 -0.12907,-0.0864 -0.201162,0.9057 0.100826,1.45241 -0.04679,-0.0117 -0.09876,-0.03 -0.142997,-0.0408 -0.603728,-0.15838 -1.150595,-0.10104 -1.150595,-0.10104 0.143973,0 0.504224,0.38868 0.546963,0.58978 0.05758,0.20154 0.403199,0.66202 0.604289,0.74796 0.201541,0.10045 0.546862,0.35924 0.747954,0.56079 0.181112,0.18121 0.716335,0.23218 1.147956,0.24119 0.224142,0.13654 0.43148,0.20331 0.48831,0.0507 0.01268,0.004 0.02752,0.008 0.03821,0.0117 0.197379,0.34026 0.393392,0.67838 0.585843,1.02342 0,0 0,6.8e-4 0,6.8e-4 -0.05152,0.21683 -0.15201,0.66308 -0.117972,0.856 5.7e-5,2.9e-4 -6e-5,0.001 0,0.001 -0.245281,-0.0437 -1.0926,-0.24449 -1.0926,-0.24449 0.101216,0.60419 0.287931,1.223 0.58979,1.39574 0.239002,0.13635 0.371537,0.36098 0.52983,0.55684 l -0.06788,0.0447 -0.01248,-0.0176 -4.576674,2.96609 c 0.04432,-0.57154 0.0837,-1.13286 0.0837,-1.40033 -0.0062,-0.62397 0.01892,-1.1458 0.04151,-1.6501 0.0396,-0.85567 0.07638,-1.66444 -0.04284,-2.80667 -0.03915,-0.39047 -0.0949,-0.81423 -0.15158,-1.256 -0.14846,-1.13593 -0.316197,-2.4226 -0.264912,-3.51307 0.0014,-0.0228 -10e-4,-0.0456 0,-0.0683 0.132855,9.9e-4 0.269958,-0.0261 0.432298,-0.16288 0.100767,-0.0864 -0.02852,-0.27328 -0.115319,-0.43163 -0.04321,-0.0854 -0.129422,-0.31636 -0.258982,-0.41713 0,0 -0.07258,-0.081 -0.123901,-0.13635 -0.0014,-0.0254 -0.0051,-0.0511 -0.0059,-0.0765 l -0.0039,-0.11274 c 0.0053,-0.001 0.01053,-0.004 0.0158,-0.006 0.08758,0.14707 0.151911,0.29249 0.275458,0.5028 0.100768,0.15839 0.474526,0.15839 0.575297,0.0136 0.100768,-0.1578 0.02949,-0.5904 -0.08567,-0.67679 -0.177523,-0.1381 -0.396024,-0.1699 -0.617473,-0.14708 0.156769,-0.0605 0.502997,-0.18472 0.732796,-0.12698 0,0 0.144227,-0.87788 0.504126,-1.29492 0,0 -0.719828,0.5181 -1.366739,0.69129 0,0 0.08507,0.50696 0.0158,0.72817 -0.0055,-10e-4 -0.009,-0.006 -0.01521,-0.008 -0.02514,-0.004 -0.05423,-0.006 -0.08237,-0.0117 -0.04348,-0.27607 -0.139018,-0.52243 -0.365741,-0.67744 -0.129558,-0.0864 -0.560853,0.0136 -0.661621,0.158 -0.100767,0.1301 0.01385,0.50366 0.200991,0.53247 0.259865,0.0406 0.429461,0.0455 0.61813,0.0948 -3.37e-4,0.0349 0.008,0.0667 0.02633,0.0954 l -6.871928,7.63964 -5.093322,-8.51413 -0.02044,-0.12191 c -0.01092,-0.0652 -0.01131,-0.0652 0.02703,-0.13186 0.02471,-0.0437 0.06242,-0.10904 0.117289,-0.21745 0.176353,-0.35271 -0.105546,-1.83949 -0.138374,-2.0073 l -0.09819,-0.50083 -0.0045,0.16483 -0.178577,-1.23957 c 0.02257,-0.15702 0.05992,-0.40201 0.06195,-0.42439 -0.007,-0.0724 -0.02159,-0.14766 -0.03361,-0.22207 0.197281,-0.0478 0.42295,-0.31849 0.530487,-0.47382 -0.08594,-0.10084 -0.402706,-0.48891 -0.690621,-0.57529 -0.05417,0.0137 -0.10972,-0.0199 -0.16145,-0.0646 0.03714,-0.0117 0.06585,-0.0369 0.08766,-0.0685 0.18636,0.0599 0.329309,0.16775 0.562114,0.27744 0.172764,0.072 0.48887,-0.15839 0.474473,-0.31631 0,-0.18706 -0.301725,-0.51862 -0.446133,-0.51862 -0.0766,0 -0.149259,0.0117 -0.218784,0.0316 0.07769,-0.08 0.09275,-0.19699 -0.04018,-0.38879 -0.38824,-0.56099 -0.517966,-1.33773 -0.517966,-1.33773 z m -0.619447,1.77927 c 0.151698,0.01 0.334835,0.12971 0.475129,0.27413 -0.02257,0.0203 -0.04836,0.0408 -0.05799,0.0599 -0.01053,0.0263 -0.0062,0.0577 0.0033,0.0884 -0.05187,0.0295 -0.102913,0.0685 -0.133772,0.0837 -0.20109,0.11528 -0.560293,0.24417 -0.675462,-0.0136 -0.05758,-0.11528 -0.05803,-0.17263 0.02834,-0.259 0.04274,-0.0864 0.187686,-0.17205 0.201647,-0.18648 0.04307,-0.0359 0.09792,-0.0499 0.158836,-0.0462 z m 1.323248,0 c 0.06113,-0.004 0.116294,0.01 0.15948,0.0462 0.01482,0.0136 0.158017,0.10026 0.201648,0.18647 0.08637,0.10124 0.07153,0.14376 0.02834,0.25896 -0.129558,0.25869 -0.474684,0.12972 -0.69062,0.0137 -0.03377,-0.0224 -0.119357,-0.0954 -0.189792,-0.11333 3.3e-5,-0.0322 -0.01209,-0.0581 -0.03494,-0.0784 0.150723,-0.16288 0.359262,-0.30395 0.525872,-0.31434 z m -0.427024,0.0891 c -0.06911,0.048 -0.135039,0.10299 -0.198359,0.16483 -0.02261,-0.0117 -0.04274,-0.0217 -0.06457,-0.0343 -10e-4,-3.4e-4 -0.0023,3.1e-4 -0.0033,0 0.04443,-0.054 0.150059,-0.0921 0.266235,-0.1305 z m -0.329497,0.79409 c 0.125891,0.30204 0.223428,0.66942 0.257008,0.98978 -0.0017,0.0137 -0.187452,1.35112 -0.342674,1.94404 -0.120118,0.50745 -0.420967,1.18834 -0.548278,1.47943 l -0.04877,0.10942 c -0.152048,0.34056 -0.197359,0.70633 -0.108745,0.88899 0.0027,0.006 0.0059,0.01 0.0086,0.0156 l -0.829006,1.36083 c -0.07063,-0.66312 -0.0922,-2.12536 -0.06656,-2.42047 0.03915,-0.53222 1.022359,-3.34657 1.217153,-3.66596 0.0045,-0.006 0.0068,-0.0117 0.01131,-0.0175 0.04705,0.0117 0.09421,0.0214 0.141671,0.0343 0.07482,-0.0991 0.266082,-0.43387 0.308408,-0.71764 z m 0.68469,3.41489 c 0.08862,0.54793 0.183024,1.32734 0.07775,1.53609 -0.05218,0.10631 -0.08793,0.16971 -0.112686,0.21153 -0.0066,0.0117 -0.01307,0.022 -0.01834,0.0316 l -0.368375,-0.71306 c 0.254628,-0.29195 0.370019,-0.74052 0.421754,-1.06621 z m -0.64449,0.88501 0.117971,0.12854 c -0.0014,0.001 -0.0023,0.004 -0.0039,0.006 l -0.02173,0.0224 -0.09291,-0.15487 z M 25.932742,109.366 c 0.385086,0.41701 0.539711,1.2949 0.539711,1.2949 0.30816,-0.072 0.924561,0.17262 0.924561,0.17262 -0.107517,-0.18667 0,-0.77696 0,-0.77696 -0.692799,-0.17262 -1.464272,-0.6906 -1.464272,-0.6906 z m 26.326582,0.77364 c 0.05579,-0.001 0.102406,0.002 0.109389,0.002 0.201334,-0.0136 0.359855,0.31055 0.392755,0.61089 -0.02834,0.004 -0.05109,0.0175 -0.06852,0.0423 -0.06921,-0.0279 -0.17883,-0.0203 -0.22274,-0.0203 -0.244278,-0.0293 -0.604542,-0.11567 -0.546959,-0.40264 0.02879,-0.11567 0.04309,-0.17283 0.172666,-0.20167 0.04295,-0.0217 0.107653,-0.0285 0.16344,-0.0302 z m -24.111723,0.004 c 0.05971,10e-4 0.128758,0.01 0.174636,0.031 0.139019,0.0289 0.154584,0.0862 0.18517,0.20165 0.06164,0.28703 -0.323808,0.3734 -0.585181,0.40264 -0.06164,0 -0.246916,-0.0137 -0.293252,0.0573 -0.02446,0.0318 -0.02512,0.0369 -0.03162,0.0488 l -0.02503,-0.0252 c 0,0 0,-6.9e-4 0,-6.9e-4 0.01248,-0.01 0.02247,-0.0199 0.02633,-0.0374 0.01521,-0.31669 0.200403,-0.69097 0.431634,-0.67613 0.0078,0 0.05758,-0.004 0.117309,-0.002 z m 11.881558,0.58715 0.496218,0.82966 c -0.350455,-0.0652 -0.678948,-0.0673 -0.973327,-0.031 z m 13.140227,0.14707 c 0.243983,-0.0137 0.484072,0.0478 0.538394,0.19902 0,0.0137 0.07172,0.18628 0.05735,0.27215 0.01443,0.12971 -0.01443,0.17302 -0.129168,0.23065 -0.244729,0.14396 -0.460688,-0.1578 -0.561458,-0.38814 -0.01561,-0.031 -0.03542,-0.0858 -0.06129,-0.13518 0.02382,-0.0175 0.04369,-0.0406 0.04876,-0.0659 0.0053,-0.0267 0.0041,-0.0607 -0.0014,-0.0942 0.03661,-0.006 0.07165,-0.0156 0.108745,-0.0176 z m -25.50021,0.63 2.997076,3.11767 c -0.03006,0.32212 -0.05033,0.58578 -0.07182,0.85471 -0.0092,0.11236 -0.02095,0.23946 -0.02898,0.34465 -0.0119,0.15975 -0.02222,0.31744 -0.03162,0.46459 -0.01619,0.24568 -0.02945,0.49142 -0.04086,0.71566 -0.01541,0.31685 -0.03458,0.75164 -0.04679,1.08207 -0.0037,0.1024 -0.0094,0.1956 -0.01326,0.30247 -0.01755,0.47505 -0.03661,1.00596 -0.06722,1.66593 -0.02659,0.49096 0.360322,2.35096 0.805943,3.67978 l -0.759812,1.27118 -3.159853,-1.9249 c -0.05803,-0.69595 -0.08633,-1.1375 -0.08633,-1.34895 0.0059,-0.62848 -0.02074,-1.15237 -0.04547,-1.65802 -0.04139,-0.84755 -0.08183,-1.64766 0.04414,-2.77368 0.04184,-0.38867 0.101138,-0.81078 0.162758,-1.25076 0.159265,-1.14536 0.341813,-2.44456 0.28468,-3.5625 -0.0017,-0.022 0.001,-0.0449 0,-0.0671 0.01092,-6.6e-4 0.02126,-0.002 0.03228,-0.002 0.02774,-0.13049 0.104688,-0.5424 0.0158,-0.82241 0.0029,-0.0293 0.0066,-0.0585 0.0092,-0.0876 z m 25.029694,0.0117 c 0.0029,0.0312 0.0062,0.0624 0.0092,0.0936 -0.07323,0.27926 -0.0037,0.67484 0.02173,0.80198 0.007,3.3e-4 0.01404,0.001 0.02109,0.002 -10e-4,0.0236 0.0017,0.0472 0,0.0706 -0.05173,1.11477 0.117523,2.41403 0.266892,3.55985 0.05668,0.43908 0.111515,0.86099 0.15158,1.24879 0.11606,1.12422 0.07974,1.92371 0.04151,2.77038 -0.02339,0.50747 -0.04802,1.03216 -0.04217,1.66198 0,0.25374 -0.03786,0.79485 -0.08105,1.35225 l -3.298238,2.15357 -0.5463,-0.91403 c 0.493195,-1.28202 0.982358,-3.69576 0.954213,-4.26631 -0.02879,-0.66353 -0.04596,-1.19628 -0.06259,-1.67316 -0.03915,-1.19077 -0.06915,-2.05455 -0.220762,-3.7582 z m -12.651259,0.17984 c 0.194728,0.006 0.400388,0.0343 0.612862,0.087 l 0.352556,0.58914 c -0.72807,-0.19448 -1.397175,-0.16151 -1.940062,-0.0441 l 0.350582,-0.58648 c 0.191919,-0.033 0.399941,-0.0531 0.624062,-0.0455 z m 0.04876,0.72882 c 0.333436,0.0117 0.691287,0.0714 1.062949,0.19194 l 0.405935,0.67943 c -1.244117,-0.5039 -2.35642,-0.28814 -3.055069,-0.0271 l 0.423731,-0.70908 c 0.334861,-0.0878 0.727055,-0.15 1.162454,-0.13518 z m 0.06062,0.75652 c 0.484509,0.0156 1.019112,0.1262 1.575641,0.39343 l 13.357037,22.32787 H 24.982481 l 2.12919,-3.56249 0.113349,0.001 c 0.652309,0.006 1.24577,0.01 1.814851,0.0137 0.622621,0.004 1.215134,0.008 1.826059,0.0136 0.122829,0 0.22525,-0.006 0.324221,-0.01 0.129559,-0.006 0.253887,-0.0117 0.424388,-0.004 0.260923,0 0.408366,0.002 0.501489,0.004 0.127764,0.002 0.167712,0.004 0.209558,-0.004 1.845817,-0.0558 3.646656,-0.0275 5.388549,0 1.005908,0.0156 2.030546,0.0316 3.071545,0.0316 0.898837,0 1.810384,-0.0117 2.732164,-0.0468 l 0.642515,-0.0238 -0.125208,-0.0772 c 0.632024,-0.002 1.271966,-0.01 1.917656,-0.0408 l 0.650421,-0.0335 -0.101489,-0.0593 c 0.474454,-0.006 0.951706,-0.0156 1.445159,-0.0361 l 0.653717,-0.025 -0.272821,-0.16404 c 0.577146,-0.001 1.164641,-0.008 1.752908,-0.0265 l 0.08567,0.0581 v -0.0599 l 0.622084,-0.0209 -0.175963,-0.11001 c 0.379589,-0.002 0.763252,-0.008 1.15191,-0.0265 l 0.67151,-0.031 -0.58452,-0.33344 c -0.08323,-0.0476 -0.165039,-0.0981 -0.246463,-0.14902 -0.116957,-0.0726 -0.235003,-0.14493 -0.367717,-0.21548 -0.150254,-0.0757 -0.288064,-0.20333 -0.434272,-0.33874 l -0.06456,-0.0574 c 0.0049,0.006 0.0062,0.006 0.0027,-0.004 -0.01482,-0.0365 -0.03708,-0.0913 -0.08567,-0.1383 -0.231238,-0.23214 -0.463647,-0.44951 -0.691279,-0.66228 -0.104376,-0.10436 -0.228083,-0.18297 -0.337402,-0.25175 -0.04588,-0.0289 -0.09164,-0.057 -0.137068,-0.0954 l -0.02898,-0.0423 -0.07118,-0.0532 c -0.12911,-0.0589 -0.257599,-0.14395 -0.382213,-0.2557 -0.07783,-0.0689 -0.137087,-0.13693 -0.192426,-0.20035 -0.131352,-0.14902 -0.266243,-0.30355 -0.546963,-0.38812 -0.323905,-0.0909 -0.581305,-0.20872 -0.784196,-0.35718 l -0.05142,-0.0416 c -0.05758,-0.0486 -0.111828,-0.095 -0.168044,-0.1141 -0.300962,-0.11567 -0.562844,-0.11528 -0.747292,-0.006 -0.107107,0.0535 -0.226329,0.13147 -0.355191,0.22537 -0.03047,-0.0117 -0.05633,-0.0261 -0.09027,-0.0361 -0.416582,-0.13401 -0.716565,-0.252 -0.931156,-0.42835 -0.07783,-0.0624 -0.159363,-0.12718 -0.248437,-0.17126 -0.1516,-0.0599 -0.534863,-0.18414 -0.84482,-0.0176 -0.205145,0.11392 -0.395681,0.24939 -0.58782,0.40526 -0.146333,-0.14298 -0.316156,-0.26991 -0.585842,-0.34926 -0.486755,-0.14297 -0.872092,-0.32073 -1.15191,-0.53442 -0.09897,-0.0829 -0.201301,-0.16873 -0.291272,-0.2043 -0.270822,-0.12016 -0.696642,-0.1966 -1.011547,-0.0197 -0.0917,0.0531 -0.17329,0.10417 -0.250419,0.15488 0.07416,-0.6444 0.03691,-1.84054 0.03691,-1.84054 v -2.54107 c 0.10972,-0.0136 0.208781,-0.0339 0.296544,-0.0632 0.245179,-0.072 0.517308,-0.25896 0.517308,-0.25896 l -0.0725,-0.34465 c 0,0 6.75e-4,-0.43202 -0.229325,-0.79145 -0.100319,-0.14395 -0.21605,-0.40305 -0.417142,-0.67613 -0.230333,-0.31625 -0.402602,-0.34463 -0.676123,-0.34463 -0.273518,0 -0.360309,0.0136 -0.460632,0.11528 -0.115163,0.10045 -0.100553,0.25833 -0.186496,0.41711 -0.100768,0.20111 -0.172608,0.25859 -0.0435,0.38815 0.129558,0.1578 0.345968,0.0435 0.345968,0.0435 0.07198,-0.17322 0.200989,-0.3743 0.200989,-0.3743 -0.388238,0.70451 -0.417138,1.26593 -0.417138,1.26593 -0.172764,0.1301 -0.05797,0.38747 -0.05797,0.38747 0,0 6.73e-4,0 6.73e-4,0 0,0 0.201,0.20196 0.603631,0.24517 0.09726,0.006 0.184039,0.01 0.265573,0.01 v 2.5503 c 0,1.05601 -0.04984,1.65494 -0.01833,1.95718 -0.325443,-0.12932 -0.570117,-0.25941 -0.75191,-0.40923 -0.14171,-0.11879 -0.256405,-0.19136 -0.328835,-0.21418 -0.309508,-0.14629 -0.766502,-0.21006 -1.071513,-0.0297 -0.165586,0.0765 -0.311758,0.17224 -0.451406,0.27217 -0.125306,-0.0831 -0.264262,-0.15858 -0.445476,-0.21221 -0.711244,-0.21637 -1.20351,-0.44366 -1.55126,-0.71762 l -0.08963,-0.0691 c -0.09718,-0.0765 -0.197847,-0.15507 -0.294567,-0.19701 -0.341901,-0.14844 -0.878546,-0.24267 -1.267234,-0.0203 -0.924032,0.51778 -1.715999,1.24188 -2.419144,2.21089 -0.447623,0.59608 -0.734957,0.82719 -1.430005,1.26131 -0.04679,0.03 -0.111281,0.065 -0.180566,0.1028 -0.185794,0.10162 -0.378507,0.20662 -0.471179,0.31237 -0.06343,0.063 -0.110735,0.13888 -0.156184,0.21218 -0.04363,0.0698 -0.09332,0.14903 -0.150898,0.18453 l -0.04679,0.0343 c -0.113876,0.0843 -0.189598,0.13361 -0.251736,0.17126 l 9.847264,-16.47537 c 0.407334,-0.1816 1.038728,-0.39014 1.811556,-0.36375 z m -9.24297,1.52622 3.469572,3.65144 -0.952236,1.59346 c -0.07492,-0.3933 -0.129031,-0.78322 -0.146294,-0.9048 -0.07738,-0.59023 -0.06209,-0.87759 0,-1.81288 z m -9.297008,0.75388 c -0.18714,0 -0.330812,0.15858 -0.330812,0.33148 -3.38e-4,0.18668 0.14368,0.33081 0.330812,0.33081 0.18714,0 0.330155,-0.14396 0.330155,-0.33081 0,-0.17223 -0.142998,-0.33148 -0.330155,-0.33148 z m 36.837448,0 c -0.18714,0 -0.330155,0.15917 -0.330155,0.33148 0,0.18668 0.142997,0.33081 0.330155,0.33081 0.187588,0 0.331261,-0.14396 0.33081,-0.33081 0,-0.17262 -0.143661,-0.33148 -0.33081,-0.33148 z m -56.8924326,0.20893 -1.19144998,2.4152 -2.66495132,0.38682 1.92819768,1.8801 -0.4553556,2.65376 2.38355922,-1.25339 2.3835591,1.25339 -0.4547002,-2.65376 1.9281997,-1.8801 -2.6656087,-0.38682 z m 77.4726386,0 -1.19145,2.4152 -2.664947,0.38682 1.928199,1.8801 -0.454704,2.65376 2.382902,-1.25339 2.383563,1.25339 -0.455359,-2.65376 1.928195,-1.8801 -2.664288,-0.38682 z m -55.664081,1.20201 c -0.186691,0 -0.330155,0.14278 -0.330155,0.31565 3.37e-4,0.18706 0.143446,0.33082 0.330155,0.33082 0.172764,0 0.33147,-0.14357 0.33147,-0.33082 0,-0.17263 -0.15872,-0.31565 -0.33147,-0.31565 z m 33.330309,0 c -0.172763,0 -0.331471,0.14278 -0.331471,0.31565 0,0.18706 0.158739,0.33082 0.331471,0.33082 0.18714,0 0.329705,-0.14357 0.330155,-0.33082 0,-0.17263 -0.143017,-0.31565 -0.330155,-0.31565 z m -16.788387,0.21546 -0.0039,7.1e-4 h 0.0039 z m 0,7.1e-4 -0.04151,0.90084 0.383533,0.01 c 0.20109,0.0136 0.321586,-0.0946 0.321586,-0.23856 0.01404,-0.1578 -0.09792,-0.19853 -0.155521,-0.22732 0.100768,-0.0433 0.123902,-0.12971 0.123902,-0.18706 0.01443,-0.12893 -0.06579,-0.23403 -0.238554,-0.24841 z m -0.37101,0.0117 -0.172666,0.0441 -0.08633,0.8053 -0.41714,-0.69127 -0.172666,0.0289 0.200991,0.87775 0.114655,-0.0136 -0.114655,-0.53248 c -0.01443,-0.0136 -0.04293,-0.12913 -0.05735,-0.21614 l 0.41714,0.6906 0.115319,-0.0283 0.08567,-0.79143 c 0.02879,0.0864 0.0435,0.18726 0.0435,0.21614 l 0.114656,0.5173 0.115318,-0.0136 z m 1.376627,0.0706 -0.238553,0.88108 0.114012,0.031 0.09359,-0.37298 0.289296,0.0829 c 0.144403,0.0433 0.129071,0.12504 0.114656,0.19701 -0.01443,0.0283 -0.0559,0.15995 -0.04151,0.21746 l 0.144967,0.041 v -0.01 c -0.02879,-0.0289 -0.02471,-0.0455 -0.0099,-0.10339 l 0.01976,-0.15546 c 0.04364,-0.11528 0.0023,-0.158 -0.04086,-0.18647 0.05758,-0.0293 0.146723,-0.0468 0.175963,-0.17614 0.05758,-0.18667 -0.07352,-0.26788 -0.217466,-0.31104 z m -0.870523,0.0416 0.19637,0.0203 c 0.129558,0 0.176607,0.0382 0.176607,0.12465 -0.01443,0.10084 -0.07133,0.12893 -0.186496,0.11469 H 40.02651 Z m 7.385942,0.0203 c 0.05245,0.80369 0.09741,1.26403 0.03029,1.81091 -0.02627,0.1966 -0.203837,1.19439 -0.365736,1.68832 l -1.115008,-1.86426 z m -6.402072,0.0942 0.259641,0.093 c 0.05803,0.0137 0.146197,0.0363 0.10346,0.16541 -0.02926,0.11528 -0.111106,0.10845 -0.197043,0.0936 l -0.248435,-0.0726 z m -2.65704,0.0897 -0.589136,0.30181 0.417139,0.80595 0.589796,-0.31631 -0.04283,-0.0864 -0.489631,0.24446 -0.129168,-0.25898 0.431638,-0.22997 -0.0435,-0.10104 -0.446133,0.22997 -0.129168,-0.24382 0.474471,-0.24515 z m 3.553924,0.11469 -0.446134,0.77696 0.575294,0.33146 0.04284,-0.0864 -0.460634,-0.27347 0.144324,-0.259 0.431637,0.24449 0.05735,-0.0864 -0.431634,-0.259 0.144324,-0.22998 0.459972,0.27347 0.05799,-0.10104 z m -1.901842,0.0542 0.217464,0.0209 c 0.08682,0 0.186496,0.0297 0.186496,0.14415 0,0.0868 -0.07133,0.14551 -0.186496,0.14551 l -0.228009,-0.0209 z m -2.514697,0.33478 -0.08633,0.0718 0.532458,0.71963 0.100826,-0.0718 z m -0.287981,0.20165 -0.503467,0.53243 0.07182,0.0718 0.21615,-0.2155 0.575296,0.5463 0.07118,-0.0864 -0.56014,-0.5463 0.21549,-0.23066 z m 2.709762,0.11352 v 1.09458 h 0.195067 v -1.09456 z m -0.124545,0.006 -0.193752,0.0209 0.111359,1.04647 -0.229986,-1.02209 -0.190437,0.0423 0.242508,1.07742 0.190436,-0.0429 -0.002,-0.008 0.188466,-0.0203 z m 0.452726,6.9e-4 -0.112686,1.09393 0.193753,0.0197 0.113348,-1.09393 z m 0.333446,0.0328 -0.22867,1.07744 0.191119,0.0402 0.228671,-1.07745 z m 2.476477,0.0765 -0.684029,0.57002 0.22801,0.28929 c 0.201541,0.21595 0.443301,0.11918 0.601656,-0.01 0.201543,-0.15878 0.250821,-0.39322 0.09291,-0.57993 z m -2.155551,0.0117 -0.347946,1.03723 0.185833,0.062 0.347946,-1.03727 z m -1.760158,0.0117 -0.183863,0.0653 0.369035,1.03791 0.183862,-0.0659 z m 2.065929,0.0962 -0.448109,1.0076 0.177933,0.0796 0.448111,-1.00757 z m -2.388832,0.0117 -0.177269,0.0835 0.474471,1.00691 0.17727,-0.0829 z m 4.22873,0.0659 0.134416,0.16599 c 0.100767,0.11528 0.08587,0.24002 -0.07248,0.38355 -0.157901,0.12971 -0.303188,0.12503 -0.40396,0.01 l -0.134415,-0.15546 z m -1.550602,0.0566 -0.543667,0.95224 0.169351,0.0962 0.543666,-0.95222 z m -2.985213,0.0117 -0.166736,0.10026 0.575956,0.95224 0.166737,-0.10163 z m 3.265942,0.16736 -0.646467,0.87581 0.157511,0.11606 0.646468,-0.87515 z m -3.564466,0.0117 -0.153551,0.12074 0.68535,0.87513 0.152887,-0.11996 z m -1.5249,0.12308 c -0.03139,-0.006 -0.06316,-0.004 -0.09556,0.004 -0.06433,0.0156 -0.132757,0.0628 -0.175963,0.1344 l -0.197043,0.34202 0.756519,0.47645 0.07248,-0.0928 -0.332131,-0.2076 0.145631,-0.23856 c 0.100319,-0.17263 0.03213,-0.31133 -0.08304,-0.38286 -0.02879,-0.0176 -0.05957,-0.0297 -0.09094,-0.0349 z m 5.35428,0.0581 -0.732796,0.82241 0.14565,0.13049 0.732794,-0.82305 z m -4.108791,0.0117 -0.142997,0.1344 0.776943,0.82243 0.142354,-0.1344 z m -1.288985,0.0692 c 0.01931,0.002 0.04038,0.0156 0.06195,0.0316 0.08637,0.0572 0.08854,0.13088 0.03098,0.21681 l -0.113349,0.18706 -0.2491,-0.14571 0.134435,-0.20758 c 0.03238,-0.0536 0.07615,-0.0909 0.135098,-0.0823 z m 5.634353,0.14415 -0.819121,0.73211 0.129812,0.14571 0.819782,-0.73213 z m 1.431981,0 -0.804622,0.40262 0.301815,0.58982 0.100826,-0.0429 -0.244486,-0.48964 0.273479,-0.12913 0.21483,0.44616 0.10149,-0.0581 -0.230644,-0.43165 0.258982,-0.12932 0.230643,0.47514 0.100163,-0.0435 z m -6.027765,0.0117 -0.125872,0.14903 0.867229,0.73213 0.125871,-0.14902 z m 4.805342,0.24055 -0.878431,0.64646 0.114656,0.15742 0.879092,-0.64649 z m -5.02676,0.0117 -0.112042,0.16015 0.93115,0.64646 0.112042,-0.16034 z m -1.402989,0.23922 -0.201648,0.63264 0.863272,0.27347 0.200993,-0.63262 -0.100163,-0.0289 -0.17331,0.51796 -0.287979,-0.10085 0.158837,-0.46063 -0.100163,-0.0429 -0.158798,0.47446 -0.258324,-0.0858 0.172003,-0.50413 z m 6.627445,0.0137 -0.951578,0.54761 0.09753,0.16931 0.951581,-0.54697 z m -5.434019,0.0117 -0.09291,0.17126 1.008252,0.54697 0.09293,-0.17126 z m 5.585586,0.28535 -1.008251,0.44745 0.07972,0.17789 1.00825,-0.44742 z m -5.745057,0.0117 -0.07642,0.17984 1.068215,0.44745 0.07643,-0.17926 z m 20.914311,0.13517 c 0.03361,0.04 0.0663,0.081 0.104123,0.11665 0.244729,0.20155 0.791255,0.99294 1.136753,1.09326 0.34252,0.0962 0.630728,0.24545 0.694574,0.38353 0.231522,0.93375 0.398988,1.9154 0.512696,2.86791 -0.402134,-0.446 -0.503883,-1.294 -1.39508,-1.7549 0,0 0.04274,0.35978 0,0.60497 -0.03726,0.158 -0.08628,0.50378 -0.07777,0.79805 -0.336339,-0.23786 -0.738385,-0.59136 -0.785513,-0.74335 0,0 -0.143622,1.23765 0.200991,1.89985 0.359896,0.64691 0.360372,0.99194 0.748609,1.13544 0.402633,0.15819 0.460127,0.25949 0.603634,0.35981 0.158349,0.10084 0.40275,0.24513 0.604293,0.24513 0.07449,0 0.145358,0.0217 0.20956,0.0462 0.01619,0.0948 0.03503,0.18862 0.06062,0.28205 0.0017,0.0909 0.01697,0.18745 0.03691,0.286 10e-4,0.19798 10e-4,0.39281 -0.0033,0.56604 -0.01248,0.40133 -0.127061,1.13093 -0.311043,2.02576 -0.0198,-0.29645 -0.116138,-0.59413 -0.225373,-0.80266 -0.143954,-0.30186 -0.344705,-0.30153 -0.445476,-0.60428 -0.100319,-0.30187 -0.446693,-0.40307 -0.647783,-0.64781 -0.201543,-0.24472 -0.603634,-0.54628 -0.603634,-0.54628 -0.143505,0.34549 -0.187198,1.69655 -0.100807,1.89853 0.03098,0.0616 0.05245,0.17477 0.07315,0.30051 -0.145046,-0.0552 -0.276779,-0.10104 -0.276779,-0.10104 -0.258672,0.58931 0.04398,1.19313 0.144324,1.73973 0.02879,0.17302 0.244329,0.50356 0.34465,0.70512 0.100767,0.20151 0.05783,0.38857 0.158153,0.54694 0.09185,0.13089 0.304199,0.15176 0.525876,0.34926 0.02861,0.42158 0.06761,0.77052 0.137731,0.77762 -0.159461,0.53612 -0.330011,1.08022 -0.514669,1.62507 -0.03944,0.11646 -0.08142,0.23185 -0.121912,0.34793 -0.01599,-0.21493 -0.08173,-0.44863 -0.237896,-0.69587 -0.258672,-0.40264 -0.302176,-0.37473 -0.446133,-0.80661 -0.201543,-0.54661 -0.604492,-0.54646 -0.661623,-1.0926 0,0 -0.143973,0.64728 -0.187159,1.19341 -0.05713,0.54704 0.04313,0.74858 0.08633,1.05045 0.03821,0.2006 -0.03634,0.42353 -0.0916,0.67873 -0.0119,-0.29267 -0.06849,-0.70105 -0.195718,-0.87974 -0.158349,-0.20153 -0.101489,-0.60427 -0.101489,-0.60427 -0.100768,0.20106 -0.604192,0.90579 -0.805284,1.04977 -0.0043,0.004 -0.009,0.0117 -0.01326,0.0156 l -0.135098,-0.2267 0.07843,-0.048 c 0.201988,-0.12445 0.543193,-0.47206 0.65701,-0.8 0.14171,-0.40488 0.166697,-0.52699 0.21483,-0.77036 0.02116,-0.10807 0.04771,-0.2408 0.09226,-0.43559 0.04408,-0.18745 0.06652,-0.38737 0.08766,-0.57991 0.0207,-0.1857 0.04315,-0.37814 0.08501,-0.56212 0.02565,-0.13362 0.123005,-0.40342 0.226031,-0.68864 0.179961,-0.50025 0.38553,-1.06754 0.394076,-1.38782 0.02385,-0.64737 0.130085,-1.21895 0.231305,-1.77137 0.143524,-0.77423 0.291755,-1.57526 0.214828,-2.58522 -0.02565,-0.38957 -0.06967,-0.81601 -0.114656,-1.26724 -0.108414,-1.05449 -0.2308,-2.25073 -0.130475,-3.21256 0.0333,-0.27892 0.01131,-0.58032 -0.0086,-0.87184 -0.0062,-0.0923 -0.01151,-0.18179 -0.0158,-0.2702 l 0.02766,-0.0175 -0.03098,-0.0468 z m -36.040729,0.0784 -0.0039,0.079 -0.04217,0.0593 0.03757,0.0232 c -0.0045,0.0876 -0.01034,0.17614 -0.01638,0.26821 -0.02159,0.29062 -0.04406,0.59163 -0.0099,0.8692 0.08341,0.74655 0.02298,1.63159 -0.06193,2.48373 -0.0059,-0.27566 -0.0244,-0.49489 -0.0244,-0.49489 -0.04679,0.15196 -0.449223,0.5055 -0.785511,0.74334 0.0086,-0.29425 -0.04014,-0.63993 -0.07711,-0.79803 -0.04319,-0.24519 0,-0.60496 0,-0.60496 -0.890751,0.46066 -0.99279,1.30803 -1.394418,1.75423 0.1137,-0.95187 0.280584,-1.9328 0.512034,-2.86595 0.0616,-0.13868 0.351049,-0.28823 0.695229,-0.38483 0.3455,-0.10045 0.892026,-0.89173 1.136755,-1.09328 0.01248,-0.0117 0.02241,-0.0261 0.03425,-0.0382 z m 20.996685,0.0751 -1.051089,0.34532 0.06062,0.18589 1.051086,-0.3453 z m -6.002726,0.0137 -0.05799,0.18647 1.113694,0.34532 0.05797,-0.18648 z m 7.06633,0.22338 -0.08633,0.0136 0.02899,0.20099 -0.618792,0.0864 0.01444,0.11509 0.877771,-0.12991 -0.01443,-0.0858 c -0.143505,-0.0137 -0.158466,-0.0581 -0.201652,-0.20165 z m -21.825689,0.01 1.638902,0.99837 1.754228,1.07942 c -0.09866,1.62627 -0.09117,2.40599 -0.08038,3.57368 0.0041,0.4166 0.0072,0.88225 0.0072,1.45044 -0.01092,0.37582 0.207738,1.40951 0.526533,2.3559 0.143115,0.48972 0.322565,0.93884 0.555528,1.30939 l -2.548308,3.98756 c -0.178596,-0.13596 -0.413055,-0.38731 -0.493583,-0.601 -0.143505,-0.38466 -0.166873,-0.49264 -0.216808,-0.73017 -0.02388,-0.11059 -0.05288,-0.24715 -0.102816,-0.4514 -0.04408,-0.17321 -0.06644,-0.35678 -0.09027,-0.55157 -0.02251,-0.19135 -0.04635,-0.39033 -0.09359,-0.57794 -0.03148,-0.15468 -0.134279,-0.42154 -0.253053,-0.73014 -0.17725,-0.45754 -0.397598,-1.02652 -0.406596,-1.30678 -0.02655,-0.66627 -0.140833,-1.24772 -0.252389,-1.80959 -0.156106,-0.79313 -0.305002,-1.54262 -0.225375,-2.52063 0.027,-0.38598 0.07287,-0.8099 0.121912,-1.25934 0.116957,-1.06707 0.249716,-2.27665 0.139038,-3.26728 -0.03195,-0.25461 -0.0098,-0.54325 0.01073,-0.82172 0.0029,-0.0427 0.0064,-0.0854 0.0092,-0.12698 z m 35.573504,0.006 c 0.0027,0.0382 0.006,0.0761 0.008,0.11528 0.0198,0.27983 0.04048,0.56971 0.0099,0.82703 -0.103478,0.98927 0.02027,2.19887 0.129168,3.26594 0.04635,0.44898 0.08992,0.87224 0.114656,1.25867 0.07467,0.97848 -0.06421,1.72905 -0.210874,2.5226 -0.103908,0.56191 -0.210964,1.14243 -0.235259,1.80959 -0.0076,0.28117 -0.214684,0.85166 -0.380236,1.31007 -0.111126,0.30728 -0.206915,0.57314 -0.235259,0.7216 -0.04408,0.19389 -0.06692,0.39285 -0.08897,0.58584 -0.02159,0.19389 -0.04209,0.37725 -0.08304,0.55091 -0.04543,0.19884 -0.07198,0.33439 -0.09359,0.44417 -0.04814,0.23932 -0.06973,0.34785 -0.205602,0.73607 -0.07245,0.20875 -0.283251,0.45389 -0.447455,0.59244 l -2.268896,-3.80235 c 0.403097,-0.7531 0.642669,-1.80461 0.780903,-2.9213 0.07999,-0.40055 0.128856,-0.74015 0.123902,-0.91929 0,-0.21691 0.0017,-0.36209 0.0027,-0.55157 0.124096,-2.31186 -0.06981,-4.46611 -0.07118,-4.48111 l 1.352243,-0.89097 z m -14.714549,0.0626 -1.08074,0.22868 0.04018,0.19097 1.080744,-0.22867 z m -6.199762,0.0136 -0.0389,0.19116 1.14532,0.22867 0.03821,-0.19175 z m -0.815827,0.0542 c -0.100768,0 -0.287523,0.0136 -0.316314,0.33015 -0.01482,0.21594 0.115475,0.31688 0.25898,0.33082 0.157901,0.0137 0.201196,-0.11449 0.229992,-0.17204 l 0.05735,-0.18706 c 0.04274,-0.14395 0.07188,-0.18745 0.172666,-0.17263 0.129558,0.0137 0.143778,0.15839 0.129831,0.24449 -0.01482,0.11528 -0.07274,0.24439 -0.230643,0.22998 l -0.01443,0.11469 c 0.08594,0.0136 0.15831,3.5e-4 0.245141,-0.0712 0.02834,-0.0289 0.08579,-0.10065 0.100163,-0.259 0.01404,-0.15819 -0.02854,-0.35945 -0.244487,-0.37429 -0.129559,-0.0137 -0.215695,0.0579 -0.244485,0.17262 l -0.08567,0.259 c -0.01444,0.0433 -0.04346,0.10026 -0.129812,0.10026 -0.12911,-0.0137 -0.144012,-0.14395 -0.129168,-0.22997 0,-0.10085 0.05701,-0.20103 0.200992,-0.20103 z m 7.06831,0.26294 -1.093263,0.11274 0.01978,0.19389 1.093265,-0.11274 z m -6.308497,0.0136 -0.01912,0.19389 1.15916,0.11274 0.01912,-0.19447 z m 6.843593,0.26951 c -0.04274,0 -0.120996,-0.004 -0.206923,0.0831 -0.05758,0.0722 -0.07315,0.16014 -0.07315,0.21745 -0.01443,0.20156 0.129617,0.30051 0.259645,0.30051 0.07108,0.0137 0.170423,-0.01 0.228008,-0.12464 0.01443,0.0433 0.06033,0.11391 0.175944,0.11391 0.114733,0.0137 0.237898,-0.0575 0.237898,-0.259 0.01443,-0.20108 -0.127257,-0.28006 -0.228009,-0.28006 -0.08637,0 -0.147152,0.038 -0.175963,0.12464 -0.02924,-0.10085 -0.102289,-0.16171 -0.217465,-0.17594 z m -1.605295,0.0316 v 0.19506 h 1.093922 v -0.19506 z m -5.262019,0.0137 v 0.19447 h 1.159156 v -0.19447 z m -18.068803,0.0277 c -0.18714,0 -0.331472,0.14317 -0.331472,0.33015 0,0.17263 0.144324,0.31633 0.331472,0.31633 0.172295,0 0.330812,-0.14356 0.330812,-0.31633 0,-0.18667 -0.158056,-0.33015 -0.330812,-0.33015 z m 42.619409,0 c -0.172763,0 -0.330155,0.14356 -0.330155,0.33015 0,0.17263 0.157862,0.31633 0.330155,0.31633 0.18714,0 0.330813,-0.14356 0.330813,-0.31633 0,-0.18706 -0.143681,-0.33015 -0.330813,-0.33015 z m -17.683292,0.0726 c 0.07198,0 0.149473,0.0613 0.135098,0.17594 0,0.0864 -0.04081,0.15546 -0.155521,0.15546 -0.130026,0 -0.144968,-0.10396 -0.144968,-0.17613 0,-0.12894 0.09388,-0.15547 0.16541,-0.15547 z m 0.393418,0.0416 c 0.05758,0 0.129051,0.0298 0.114656,0.14493 0,0.11528 -0.07104,0.14512 -0.114656,0.14512 -0.07153,-0.0137 -0.134454,-0.0796 -0.134454,-0.166 0,-0.0716 0.06291,-0.12386 0.134454,-0.12386 z m -2.00201,0.0612 -0.0204,0.19389 1.09392,0.11606 0.0204,-0.19389 z m -4.095612,0.0137 -1.1585,0.11606 0.01911,0.19389 1.15982,-0.11606 z m 4.075845,0.20362 -0.04086,0.19038 1.063604,0.23263 0.04151,-0.19097 z m -4.053438,0.0137 -1.127528,0.23196 0.03954,0.19096 1.126868,-0.23263 z m 5.399092,0.15604 -0.143661,0.58978 0.100826,0.0296 0.115319,-0.4751 c 0.04319,0.0136 0.100377,0.0577 0.129168,0.18706 l 0.02899,0.10026 c 0.04319,0.15819 0.08604,0.27369 0.229986,0.30248 0.158349,0.0433 0.287415,-0.0587 0.330149,-0.20167 0.01482,-0.0868 0.0441,-0.30276 -0.243822,-0.3743 l -0.01443,0.11528 c 0.05758,0.0136 0.201552,0.0577 0.158797,0.21614 -0.02924,0.12894 -0.130241,0.1578 -0.187822,0.12913 -0.115163,-0.0136 -0.143876,-0.10065 -0.172666,-0.20097 l -0.02899,-0.12991 c -0.04274,-0.12971 -0.115124,-0.22993 -0.301817,-0.28796 z m -22.30939,0.0271 c -0.187607,0 -0.330812,0.15799 -0.330812,0.3308 -3.39e-4,0.18667 0.143212,0.33082 0.330812,0.33082 0.186691,0 0.330813,-0.14357 0.330813,-0.33082 0,-0.17263 -0.144129,-0.3308 -0.330813,-0.3308 z m 37.932026,0 c -0.18714,0 -0.330812,0.15799 -0.330812,0.3308 0,0.18706 0.14368,0.33082 0.330812,0.33082 0.18714,0 0.33081,-0.14396 0.33081,-0.33082 0,-0.17263 -0.14368,-0.3308 -0.33081,-0.3308 z m -22.514995,0.004 c -0.03347,-2.8e-4 -0.06287,0.006 -0.08436,0.0117 -0.18714,0.0437 -0.24494,0.20202 -0.216149,0.34598 0.01443,0.0726 0.05764,0.12854 0.100806,0.15741 l -0.243827,0.0136 -0.08633,-0.35914 -0.115319,0.0136 0.100806,0.44546 0.488966,-0.0435 -0.01443,-0.0864 c -0.07245,-0.0289 -0.114773,-0.0854 -0.129168,-0.14298 -0.01443,-0.10084 0.02852,-0.20141 0.143641,-0.23065 0.115163,-0.0283 0.215486,0.0136 0.243828,0.12991 0.02879,0.10084 1.54e-4,0.18706 -0.100163,0.21548 l 0.02834,0.11469 c 0.18714,-0.072 0.2019,-0.21519 0.172667,-0.3308 -0.05399,-0.20448 -0.188934,-0.25553 -0.289296,-0.25635 z m 5.500575,0.006 -0.06129,0.18569 1.034611,0.34465 0.06195,-0.18511 z m -3.957223,0.0136 -1.095898,0.34465 0.05865,0.18648 1.095896,-0.34401 z m 3.879463,0.19311 -0.07841,0.17926 1.007593,0.44417 0.07908,-0.17867 z m -3.79643,0.0117 -1.067562,0.44484 0.07514,0.17984 1.067562,-0.44481 z m 3.720646,0.17868 -0.09753,0.16872 0.947628,0.54695 0.09687,-0.16873 z m -3.638932,0.0117 -1.00364,0.54697 0.09359,0.17184 1.003637,-0.54762 z m 3.517022,0.166 -0.114012,0.158 1.395737,1.00824 0.114656,-0.15878 z m -3.387862,0.0117 -1.478768,1.00826 0.110052,0.16151 1.47877,-1.00824 z m -1.416823,0.17068 -0.805284,0.35914 0.04284,0.087 c 0.143505,-0.0289 0.187549,0.0136 0.245143,0.14356 l 0.08567,-0.0291 -0.08567,-0.20166 0.574636,-0.24382 z m 4.684086,6.6e-4 -0.131139,0.14415 2.559511,2.32754 0.131138,-0.14415 z m -3.139417,0.0117 -2.711079,2.32755 0.127178,0.14766 2.711079,-2.32757 z m 4.65641,0.10222 -0.05735,0.11469 0.805943,0.3743 0.02834,-0.0864 c -0.115163,-0.086 -0.100416,-0.14435 -0.04283,-0.28797 l -0.08633,-0.0283 -0.08633,0.18706 z m -17.254951,0.01 4.299898,2.64517 -1.036587,1.73445 c -0.231122,-0.63866 -0.604964,-1.85569 -0.367716,-2.53776 l -2.898226,-1.80031 c 0.001,-0.0137 0.0017,-0.0267 0.0027,-0.0416 z m 15.600228,0.0289 -0.147601,0.12698 1.727209,2.00002 0.147601,-0.12698 z m -2.855393,0.0117 -1.830013,1.99938 0.144324,0.13186 1.830009,-1.99938 z m 2.686695,0.12308 -0.155521,0.11801 1.973011,2.58916 0.15552,-0.11743 z m -2.507451,0.0117 -2.09031,2.58915 0.151581,0.1225 2.090309,-2.58916 z m 2.342046,0.11469 -0.168706,0.0975 1.366082,2.35721 0.168707,-0.0975 z m -2.166755,0.0117 -1.447796,2.3572 0.166736,0.10221 1.447795,-2.35719 z m -11.828839,0.0626 -0.02241,0.0396 -0.05469,-0.0328 z m 13.797896,0.0336 -0.17727,0.0817 1.283048,2.77499 0.17727,-0.0817 z m -1.759497,0.0117 -1.358836,2.77499 0.17528,0.0858 1.358834,-2.77501 z m 1.564436,0.0718 -0.185833,0.0607 0.546962,1.66855 0.185832,-0.0613 z m -1.358175,0.0117 -0.57991,1.66723 0.184506,0.0638 0.579911,-1.66789 z m 1.158503,0.0529 -0.190436,0.0441 0.64647,2.81851 0.190436,-0.0441 z m -0.94631,0.0117 -0.685343,2.81784 0.189792,0.0462 0.68469,-2.81848 z m 11.903307,1.36146 c 0.232667,0.99191 -0.280069,2.87848 -0.280069,2.87848 l 0.439546,0.74201 -1.598706,-2.67218 z m -29.716415,0.44218 c -0.03152,0.29725 -0.06558,0.60078 -0.08434,0.86658 -0.08144,1.01222 0.07594,1.81405 0.229329,2.58916 0.109312,0.55243 0.222793,1.12338 0.248435,1.7694 0.01092,0.32255 0.228969,0.88888 0.422414,1.38913 0.111106,0.28569 0.215484,0.55535 0.243824,0.69392 0.04364,0.17868 0.06671,0.3691 0.0883,0.55356 0.02339,0.19448 0.04716,0.39515 0.0962,0.58319 0.04814,0.19884 0.07631,0.33312 0.100162,0.44154 0.05083,0.24247 0.07711,0.36487 0.227354,0.76705 0.122828,0.32526 0.49371,0.67835 0.7038,0.79802 l 0.0244,0.0137 -0.152224,0.25437 c -0.0039,-0.004 -0.0086,-0.01 -0.01248,-0.0137 -0.201092,-0.14415 -0.704512,-0.84868 -0.805284,-1.04977 0,0 0.05709,0.40276 -0.100806,0.60427 -0.128622,0.17946 -0.185014,0.59082 -0.19637,0.88372 -0.05548,-0.25689 -0.13067,-0.48108 -0.09226,-0.68271 0.04365,-0.30187 0.144129,-0.50341 0.08698,-1.05045 -0.04319,-0.54613 -0.187159,-1.19341 -0.187159,-1.19341 -0.05758,0.54613 -0.460533,0.54601 -0.661625,1.0926 -0.143954,0.43186 -0.187003,0.40397 -0.446131,0.80661 -0.155736,0.24671 -0.222498,0.48 -0.238554,0.69457 -0.238061,-0.68226 -0.455662,-1.36657 -0.654378,-2.03827 0.08446,0.0872 0.130163,-0.26437 0.162114,-0.71632 0.219435,-0.19233 0.428944,-0.21439 0.519943,-0.34396 0.100319,-0.15859 0.05719,-0.34543 0.15751,-0.54697 0.100768,-0.20155 0.316969,-0.53191 0.345309,-0.70512 0.100768,-0.54659 0.402992,-1.15042 0.144325,-1.73973 0,0 -0.1311,0.0456 -0.274801,0.10026 0.02321,-0.1461 0.04623,-0.27979 0.08105,-0.34925 0.08637,-0.20199 0.04268,-1.55306 -0.100807,-1.89857 0,0 -0.402748,0.3016 -0.604293,0.54632 -0.201541,0.24472 -0.546805,0.34592 -0.647124,0.64777 -0.100767,0.30277 -0.302178,0.30244 -0.446137,0.60431 -0.116645,0.22266 -0.223791,0.54662 -0.232622,0.86259 -0.185286,-0.89961 -0.300552,-1.6334 -0.313019,-2.03626 -0.0045,-0.1734 -0.0041,-0.36846 -0.0033,-0.56672 0.0198,-0.0975 0.03427,-0.1933 0.03624,-0.28336 0.02581,-0.094 0.04504,-0.18843 0.06129,-0.28405 0.06421,-0.0248 0.135078,-0.0462 0.20956,-0.0462 0.201542,0 0.44594,-0.14434 0.604293,-0.24513 0.143504,-0.10045 0.201657,-0.20145 0.604291,-0.3598 0.388237,-0.14337 0.38806,-0.48853 0.747952,-1.13544 0.04383,-0.0841 0.07941,-0.17848 0.108725,-0.27743 z m 12.479919,0.64188 c 0.165215,0.0117 0.332921,0.0566 0.46788,0.11469 0.05038,0.022 0.135118,0.0889 0.208901,0.14708 l 0.09359,0.0726 c 0.38419,0.3023 0.916393,0.54987 1.677128,0.78154 0.174909,0.0517 0.303792,0.12308 0.417799,0.21088 l 0.01976,0.0156 c 0.06205,0.0488 0.118362,0.10221 0.173973,0.15898 6.75e-4,6.6e-4 0.0014,0.001 0.002,0.002 0.05471,0.0572 0.109311,0.11879 0.168043,0.18511 0.08245,0.0932 0.178811,0.19621 0.28534,0.30181 0.04498,0.0454 0.08748,0.0897 0.139058,0.13713 0.269921,0.23754 0.560953,0.43194 0.826373,0.55026 0.0096,0.01 0.02146,0.0265 0.03361,0.0423 0.006,0.008 0.009,0.01 0.01443,0.0156 0.02891,0.0373 0.05405,0.0659 0.07381,0.079 0.0035,0.002 0.0099,0.0117 0.01326,0.0137 0.120117,0.0895 0.244241,0.17204 0.367056,0.25305 0.171847,0.11372 0.334271,0.22197 0.46788,0.33938 0.457069,0.4139 0.887033,0.8298 1.316663,1.27383 0.01131,0.0117 0.03139,0.0519 0.04414,0.0796 3.02e-4,6.8e-4 3.37e-4,0.001 6.74e-4,0.002 0.03332,0.0692 0.07155,0.14746 0.130475,0.19389 l 0.107419,0.10416 c 0.298263,0.28835 0.606718,0.58605 0.990458,0.76375 0.13541,0.0681 0.267958,0.14357 0.398029,0.22274 0.06244,0.038 0.122556,0.0776 0.183863,0.11665 -1.758048,0.047 -3.478847,0.0203 -5.149337,-0.006 -1.000058,-0.0156 -2.01913,-0.031 -3.05968,-0.031 -0.777371,0 -1.566738,0.01 -2.368405,0.0335 -0.04635,0.006 -0.07627,0.004 -0.168044,0.002 -0.09447,-0.001 -0.237689,-0.004 -0.499511,-0.004 -0.176353,-0.01 -0.311437,-0.004 -0.454045,0.004 -0.09269,0.006 -0.188895,0.01 -0.301818,0.01 -0.60957,-0.008 -1.202988,-0.0117 -1.826055,-0.0156 -0.468766,-0.002 -0.954286,-0.006 -1.476137,-0.0117 l 0.872503,-1.47743 c 0.145768,-0.0351 0.319421,-0.14708 0.543007,-0.31303 l 0.02899,-0.0224 c 0.125052,-0.0743 0.201178,-0.19621 0.268212,-0.30379 0.03554,-0.0572 0.0687,-0.10982 0.108726,-0.15097 0.05624,-0.0634 0.247893,-0.16854 0.374307,-0.2379 0.07826,-0.0427 0.149922,-0.0817 0.201648,-0.11469 0.728787,-0.45525 1.051834,-0.71527 1.535442,-1.35949 0.671208,-0.92448 1.422447,-1.612 2.297893,-2.10281 0.12281,-0.0702 0.285534,-0.0895 0.450749,-0.0772 z m 3.971061,0.96671 c 0.132152,0.008 0.277343,0.0435 0.41253,0.1067 0.0117,0.004 0.0765,0.0287 0.224055,0.15156 0.207576,0.17184 0.458601,0.30603 0.719614,0.41844 l -0.05469,0.0454 0.373644,0.093 c 0.103907,0.0261 0.219771,0.0644 0.365084,0.11274 0.308609,0.0919 0.453313,0.25013 0.653055,0.46922 0.103031,0.11235 0.212504,0.23313 0.349265,0.35056 0.242476,0.22447 0.474534,0.38146 0.687326,0.47908 0.02789,0.039 0.0626,0.0837 0.109389,0.1264 0.08727,0.0616 0.176295,0.12035 0.264912,0.1779 0.158797,0.10338 0.309422,0.20132 0.434933,0.30973 0.422882,0.39137 0.767986,0.72638 1.084696,1.0557 0.0059,0.008 0.01678,0.0322 0.0244,0.0494 0.02608,0.0575 0.06244,0.13829 0.125871,0.18784 l 0.0626,0.0593 c 0.261371,0.24878 0.530902,0.50604 0.869204,0.66755 0.0078,0.004 0.01424,0.01 0.02173,0.0117 0.11251,0.055 0.220101,0.11645 0.327522,0.18258 0.0092,0.006 0.01853,0.0117 0.02766,0.0175 -0.636363,0.0176 -1.27016,0.0197 -1.888661,0.0197 -0.0474,-0.0304 -0.0949,-0.0603 -0.142354,-0.0909 -0.256427,-0.166 -0.522095,-0.33705 -0.814514,-0.48369 -0.3275,-0.15156 -0.597794,-0.41306 -0.884359,-0.69063 l -0.121268,-0.11528 c -0.0096,-0.01 -0.02805,-0.0486 -0.0402,-0.0739 -0.02967,-0.0616 -0.06328,-0.13127 -0.118615,-0.18647 -0.432772,-0.44673 -0.868384,-0.86897 -1.33445,-1.29096 -0.154311,-0.13674 -0.336165,-0.25672 -0.510717,-0.37233 -0.116958,-0.0774 -0.236022,-0.15624 -0.343991,-0.2359 -0.0096,-0.01 -0.02126,-0.025 -0.03296,-0.0402 -0.04229,-0.0548 -0.07863,-0.10201 -0.135741,-0.12991 -0.272621,-0.1301 -0.533631,-0.30366 -0.774311,-0.51599 -0.02709,-0.024 -0.0481,-0.0472 -0.07315,-0.0712 -0.111203,-0.10806 -0.208354,-0.21322 -0.295227,-0.31104 -0.07007,-0.0788 -0.138278,-0.15429 -0.210216,-0.22736 -0.0051,-0.006 -0.0099,-0.0117 -0.01521,-0.0156 0.09359,-0.0613 0.200634,-0.12425 0.318953,-0.17926 0.08255,-0.0486 0.201954,-0.0685 0.334105,-0.0607 z m 2.69065,0.35454 c 0.117309,0.006 0.24643,0.0384 0.369692,0.0928 0.0387,0.0156 0.134356,0.0954 0.212195,0.16014 0.31086,0.23665 0.738542,0.43674 1.27119,0.59376 0.280267,0.0823 0.410537,0.22703 0.589133,0.42767 0.09222,0.1026 0.189987,0.21164 0.312362,0.31962 0.179941,0.166 0.378882,0.30281 0.624062,0.42833 0.04722,0.062 0.0846,0.10709 0.112042,0.11801 0.07738,0.0568 0.156535,0.11021 0.235258,0.16288 0.139019,0.093 0.270436,0.1814 0.381557,0.28402 l 0.03821,0.0349 c 0.331554,0.30458 0.644542,0.59173 0.960807,0.92192 0.0059,0.008 0.01736,0.0312 0.02503,0.0474 0.02429,0.0511 0.05787,0.12133 0.110072,0.15937 l 0.109389,0.10416 c 0.215413,0.2061 0.437987,0.41822 0.721595,0.55617 0.0027,0.001 0.0051,0.004 0.008,0.006 0.002,0.001 0.0037,0.002 0.0059,0.004 0.103128,0.0515 0.195383,0.10982 0.289296,0.16736 -0.480974,0.0137 -0.952764,0.0205 -1.42473,0.0209 -0.04841,-0.0306 -0.09769,-0.0605 -0.145631,-0.0915 -0.09513,-0.0613 -0.192173,-0.12386 -0.291936,-0.18394 -0.0033,-0.002 -0.0064,-0.004 -0.0099,-0.006 -0.06117,-0.0373 -0.126651,-0.0704 -0.191118,-0.10416 -0.0436,-0.0232 -0.08471,-0.049 -0.129812,-0.0706 -0.27667,-0.13225 -0.524227,-0.36656 -0.763104,-0.59376 l -0.07381,-0.0691 c -0.007,-0.01 -0.02066,-0.0384 -0.02967,-0.0587 -0.02202,-0.0486 -0.04982,-0.10943 -0.09884,-0.15799 -0.322557,-0.33516 -0.672107,-0.67661 -1.105785,-1.07743 -0.150703,-0.12972 -0.318659,-0.23895 -0.481061,-0.34467 -0.08503,-0.0554 -0.170209,-0.11119 -0.227351,-0.14766 -0.01307,-0.0137 -0.03082,-0.039 -0.04611,-0.0607 -0.02388,-0.0328 -0.04635,-0.0605 -0.05536,-0.07 l -0.05865,-0.0402 c -0.214586,-0.0948 -0.412527,-0.23015 -0.628012,-0.43034 -0.128681,-0.1106 -0.228674,-0.22034 -0.322245,-0.3229 -0.214138,-0.23484 -0.417025,-0.45668 -0.825057,-0.57861 -0.0017,-6.6e-4 -0.0029,-6.6e-4 -0.0045,-0.001 0.07391,-0.0474 0.153297,-0.0962 0.239215,-0.14629 0.07512,-0.0423 0.180566,-0.0591 0.297863,-0.0519 z m -20.343627,0.24185 c -0.186691,0 -0.330812,0.14415 -0.330812,0.33147 0,0.17262 0.144129,0.33084 0.330812,0.33084 0.187608,0 0.330813,-0.15839 0.330813,-0.33084 0,-0.18707 -0.143213,-0.33147 -0.330813,-0.33147 z m 38.939617,0 c -0.18714,0 -0.330809,0.14415 -0.330809,0.33147 -3e-6,0.17223 0.143681,0.33084 0.330809,0.33084 0.18714,0 0.330812,-0.158 0.330812,-0.33084 0,-0.18707 -0.14368,-0.33147 -0.330812,-0.33147 z m -41.529439,0.0726 c -0.172764,0 -0.315656,0.14415 -0.315656,0.31699 0,0.17224 0.1429,0.31631 0.315656,0.31631 0.186691,0 0.330812,-0.14395 0.330812,-0.31631 0,-0.17262 -0.14368,-0.31699 -0.330812,-0.31699 z m 44.119263,0 c -0.187139,0 -0.331471,0.14415 -0.331471,0.31699 0,0.17224 0.144324,0.31631 0.331471,0.31631 0.172764,0 0.315655,-0.14395 0.315655,-0.31631 0,-0.17262 -0.142901,-0.31699 -0.315655,-0.31699 z m -17.641774,0.4099 c 0.08721,0.006 0.183843,0.0283 0.27809,0.0659 0.03823,0.0197 0.106073,0.0728 0.164083,0.1186 0.258227,0.21366 0.595358,0.34816 1.060971,0.49751 0.04293,0.0117 0.0788,0.0289 0.113349,0.0454 l 0.09753,0.10163 0.02899,-0.023 c 0.06747,0.0572 0.126476,0.12386 0.194395,0.20165 0.07272,0.0837 0.152263,0.17283 0.257669,0.26885 0.0068,0.006 0.01014,0.0117 0.01717,0.0176 0.138101,0.11235 0.30477,0.23906 0.506761,0.33804 0.03509,0.041 0.06983,0.0767 0.08963,0.0829 3.04e-4,9e-5 0.001,0.001 0.0014,0.001 0.06884,0.0517 0.140248,0.0991 0.210877,0.1463 0.02444,0.0156 0.04824,0.0332 0.07248,0.0494 0.07677,0.0523 0.153472,0.10689 0.232625,0.17984 0.265871,0.25102 0.51915,0.48999 0.768379,0.7374 0.007,0.01 0.01658,0.0287 0.02503,0.048 0.02025,0.0427 0.04478,0.0958 0.102815,0.15293 0.05218,0.0454 0.101646,0.0919 0.151581,0.13634 0.159948,0.1461 0.326095,0.29743 0.544324,0.41255 0.0035,0.001 0.0068,0.004 0.01073,0.006 0.03648,0.0176 0.07063,0.0369 0.106092,0.0554 -0.60374,0.0117 -1.203426,0.0117 -1.789815,0.0117 -0.132269,-0.0866 -0.271266,-0.17009 -0.419111,-0.24645 -0.03936,-0.0217 -0.07631,-0.0445 -0.117972,-0.0651 -0.229432,-0.10924 -0.422874,-0.29415 -0.628016,-0.4903 l -0.137848,-0.15039 c -0.0207,-0.0441 -0.04894,-0.10378 -0.09753,-0.15215 -0.319856,-0.33382 -0.635118,-0.62347 -0.969367,-0.92983 l -0.04611,-0.0423 c -0.133167,-0.12327 -0.283245,-0.22416 -0.429003,-0.32223 -0.07377,-0.049 -0.148401,-0.0983 -0.218125,-0.14825 -0.01268,-0.0117 -0.02739,-0.0336 -0.03954,-0.0488 l -0.09291,-0.0876 c -0.230336,-0.11489 -0.412686,-0.2377 -0.574636,-0.38749 -0.0246,-0.0222 -0.04164,-0.0419 -0.06392,-0.0632 -0.05023,-0.0482 -0.09529,-0.095 -0.137731,-0.14161 0.167731,-0.13401 0.329318,-0.24267 0.507419,-0.34202 0.05444,-0.0291 0.13223,-0.0394 0.219447,-0.0336 z m 2.424418,0.43098 c 0.07087,0.004 0.152614,0.0232 0.238551,0.056 0.01892,0.0117 0.04032,0.0316 0.06328,0.0513 0.02339,0.0197 0.04732,0.0398 0.07118,0.0573 0.243829,0.17868 0.541683,0.31526 0.907428,0.4178 0.169604,0.0517 0.246586,0.13869 0.363102,0.2715 0.0648,0.0739 0.134708,0.15293 0.226035,0.23396 0.138999,0.12366 0.283627,0.22274 0.431638,0.29655 0.02388,0.0341 0.05544,0.0761 0.08963,0.0923 0.04767,0.0328 0.09854,0.0648 0.148927,0.0967 0.101685,0.0638 0.197839,0.12445 0.276118,0.20233 0.228531,0.21412 0.457053,0.42783 0.684687,0.6649 0.01619,0.0416 0.04453,0.11099 0.09359,0.14161 l 0.06589,0.0613 c 0.159695,0.14805 0.324455,0.30106 0.520599,0.39866 0.0086,0.004 0.01716,0.01 0.02571,0.0137 -0.362145,0.008 -0.720821,0.008 -1.072177,0.008 -0.14846,-0.10124 -0.307064,-0.19174 -0.46722,-0.26491 -0.08165,-0.0433 -0.158836,-0.0973 -0.233282,-0.15741 -0.07406,-0.0599 -0.146295,-0.12582 -0.22076,-0.19389 l -6.75e-4,-6.6e-4 -6.73e-4,-6.9e-4 c -0.05109,-0.0474 -0.102757,-0.0944 -0.161451,-0.16482 -0.0158,-0.0332 -0.03595,-0.0757 -0.08633,-0.13908 l -6.73e-4,-6.8e-4 c -0.0049,-0.006 -0.0098,-0.01 -0.01443,-0.0137 -0.268394,-0.26828 -0.524096,-0.51097 -0.796058,-0.76835 -0.05263,-0.048 -0.108491,-0.0911 -0.16541,-0.13245 -0.05797,-0.0423 -0.116547,-0.0813 -0.173973,-0.11996 -0.001,-6.8e-4 -0.0017,-0.001 -0.0027,-0.002 -0.06439,-0.0425 -0.12909,-0.0858 -0.199674,-0.13713 l -0.05602,-0.0632 -0.05602,-0.0388 c -6.73e-4,-3e-4 -0.0014,-3.3e-4 -0.0019,-6.9e-4 -0.06388,-0.0296 -0.119513,-0.0655 -0.175963,-0.10104 -0.02265,-0.0137 -0.04892,-0.0256 -0.07049,-0.0402 l -6.75e-4,-6.6e-4 c -0.07535,-0.0513 -0.14372,-0.10514 -0.206921,-0.15683 -0.09088,-0.0823 -0.160807,-0.16346 -0.226036,-0.23854 -0.05505,-0.0638 -0.113525,-0.12756 -0.17727,-0.18842 0.06433,-0.0423 0.12556,-0.0774 0.185833,-0.10807 0.04363,-0.0257 0.103771,-0.0359 0.174636,-0.0316 z m -25.30449,5.07224 c -0.187139,0 -0.330812,0.15741 -0.330812,0.33014 0,0.18745 0.14368,0.33082 0.330812,0.33082 0.172764,0 0.330809,-0.14356 0.330809,-0.33082 0,-0.17263 -0.158057,-0.33014 -0.330809,-0.33014 z m 36.923771,0 c -0.172763,0 -0.330153,0.15741 -0.330153,0.33014 0,0.18706 0.157413,0.33082 0.330153,0.33082 0.18714,0 0.330811,-0.14317 0.330811,-0.33082 0,-0.17263 -0.143661,-0.33014 -0.330811,-0.33014 z m 20.5433,0.40198 -1.19211,2.41454 -2.664949,0.38748 1.9282,1.87944 -0.4547,2.65373 2.383559,-1.25272 2.382902,1.25272 -0.455362,-2.65373 1.928859,-1.87944 -2.664947,-0.38748 z m -77.4785707,0.11684 -1.19144993,2.41456 -2.66495137,0.38748 1.92819968,1.87944 -0.45535755,2.65373 2.38355917,-1.25272 2.3835611,1.25272 -0.4547002,-2.65373 1.9281997,-1.87944 -2.6656087,-0.38748 z m 17.9528177,0.0845 c -0.172296,0 -0.330813,0.14356 -0.330813,0.33082 0,0.18706 0.158057,0.3308 0.330813,0.3308 0.187139,0 0.331473,-0.14356 0.331473,-0.3308 0,-0.18706 -0.144324,-0.33082 -0.331473,-0.33082 z m 41.042451,0 c -0.18714,0 -0.331472,0.14356 -0.331472,0.33082 0,0.0468 0.0094,0.0907 0.02571,0.13049 0.01638,0.0398 0.04018,0.0751 0.06985,0.10475 0,0 0,6.8e-4 0,6.8e-4 0.05938,0.0595 0.142354,0.0948 0.235918,0.0948 0.08616,0 0.1682,-0.0361 0.229329,-0.0954 0.0609,-0.0593 0.100807,-0.14181 0.100807,-0.23528 0,-0.18706 -0.157861,-0.3308 -0.330155,-0.3308 z m -36.227881,2.86198 h 1.163118 l 0.191762,0.11333 c 0.246978,0.14669 0.469201,0.25541 0.684689,0.36114 0.336053,0.16424 0.653641,0.31882 1.003639,0.5865 0.05713,0.0538 0.19108,0.1223 0.389463,0.22141 0.07962,0.0402 0.151268,0.0749 0.181892,0.0942 0.321204,0.20963 0.811105,0.34824 1.331157,0.49489 0.491257,0.13888 1.000023,0.28239 1.304136,0.48304 0.376993,0.24564 1.411791,0.45133 1.870211,0.48238 0.452115,0.0258 0.911702,0.0507 1.375968,0.0507 0.556037,0 1.119272,-0.0367 1.687011,-0.15546 0.174109,-0.0373 0.286504,-0.0696 0.386823,-0.0987 0.134962,-0.0388 0.240627,-0.0694 0.452063,-0.10104 0.130904,-0.0176 0.323363,-0.0757 0.510058,-0.13245 0.136756,-0.041 0.26971,-0.0811 0.365081,-0.10026 0.214586,-0.0503 0.261786,-0.0718 0.320269,-0.10279 0.04139,-0.0215 0.09735,-0.0507 0.376282,-0.12777 0.137946,-0.0361 0.242067,-0.0688 0.353217,-0.10221 -0.0199,0.0384 -0.04262,0.0747 -0.06062,0.11528 -0.03148,0.0708 -0.06273,0.14103 -0.09423,0.21221 l -0.07841,0.17613 -0.0027,0.008 c -0.0092,0.0271 -0.01997,0.0521 -0.03029,0.0778 -0.02386,0.0581 -0.04832,0.11821 -0.05865,0.19116 -0.02967,0.14981 -0.01931,0.30853 0.03228,0.46327 0.08231,0.2146 0.261543,0.32785 0.442838,0.41781 l 0.01775,0.01 h 0.002 c 0.0017,0.001 0.0033,0.004 0.0051,0.006 0.0078,0.01 0.01619,0.0175 0.02571,0.0271 l 0.0119,0.01 c 0.06072,0.0406 0.123375,0.0454 0.17331,0.0494 0.03915,0.002 0.064,0.006 0.07976,0.0175 l 0.0092,0.006 c 0.05626,0.0332 0.09131,0.0792 0.131801,0.1463 0.03689,0.0564 0.08889,0.0804 0.119942,0.0948 l 0.05666,0.0209 c 0.116528,0.0392 0.226598,0.077 0.352559,0.0796 h 0.01385 v -0.0573 l 0.01248,-0.01 c 0.01561,0.0236 0.02702,0.0497 0.04611,0.0712 0.05758,0.072 0.301417,0.0718 0.430981,0.15799 0.04274,0.0137 0.08608,0.0726 0.115319,0.0726 0.04274,0 0.08573,-0.0581 0.129812,-0.0726 0.129109,-0.0864 0.358998,-0.0862 0.430977,-0.15799 0.0029,-0.004 0.0043,-0.008 0.0072,-0.0117 0.0084,0.008 0.01561,0.0156 0.02633,0.0176 0.0082,0.002 0.01599,0.004 0.02372,0.004 0.01756,0 0.03546,-0.006 0.04941,-0.0156 0.124174,-0.01 0.232615,-0.0501 0.336084,-0.0892 0.04769,-0.0156 0.119259,-0.0392 0.148928,-0.11333 0.04229,-0.0665 0.09517,-0.11489 0.129831,-0.14024 0.02429,-0.0156 0.05255,-0.0197 0.09753,-0.0224 0.0513,-0.004 0.115221,-0.01 0.175943,-0.0501 0.0045,-0.002 0.0086,-0.006 0.01248,-0.01 0.01346,-0.0137 0.0235,-0.0271 0.03296,-0.0384 0.0014,-0.001 0.0033,-0.002 0.0045,-0.006 0.176802,-0.0882 0.372089,-0.20089 0.456678,-0.42043 0.05038,-0.15117 0.06107,-0.31051 0.03228,-0.45534 -0.01131,-0.0774 -0.03546,-0.13771 -0.05932,-0.19582 -0.01092,-0.0254 -0.02132,-0.0507 -0.03033,-0.0778 -10e-4,-0.002 -0.0017,-0.006 -0.0027,-0.008 l -0.17282,-0.38985 c -0.0306,-0.0691 -0.06833,-0.13362 -0.104766,-0.19582 -0.03601,-0.0607 -0.06993,-0.1184 -0.09556,-0.17595 -0.0117,-0.0295 -0.02565,-0.0462 -0.03757,-0.0706 0.04003,0.0176 0.08093,0.0335 0.124545,0.0382 0.376993,0.0644 0.610459,0.14181 0.88173,0.22998 0.146665,0.0486 0.30541,0.10065 0.49885,0.15546 0.260478,0.0774 0.311686,0.10631 0.349924,0.12777 0.05624,0.0314 0.09995,0.0534 0.30643,0.10474 0.08547,0.0176 0.21009,0.0581 0.337401,0.0995 0.174559,0.0558 0.353878,0.11372 0.47579,0.13186 0.196589,0.0314 0.294056,0.062 0.41912,0.10026 0.09538,0.0296 0.198868,0.062 0.364419,0.10026 0.530397,0.11879 1.057087,0.15546 1.578935,0.15546 0.438623,0 0.874929,-0.0267 1.305454,-0.0529 0.408483,-0.03 1.376879,-0.23561 1.731826,-0.48302 0.282065,-0.19929 0.755857,-0.34251 1.215173,-0.48106 0.485408,-0.14727 0.943446,-0.28638 1.243511,-0.49556 0.02926,-0.0203 0.09599,-0.055 0.170677,-0.0948 0.185813,-0.0995 0.311561,-0.16834 0.355196,-0.21418 0.335153,-0.27532 0.630349,-0.42998 0.943011,-0.59372 0.201541,-0.10513 0.410383,-0.21404 0.642515,-0.36115 l 0.168707,-0.10728 h 1.005617 c -0.002,0.006 -0.01912,0.0581 -0.01912,0.0581 0,0 0.142998,0.69051 0.142998,0.89159 0,0.20199 -0.100768,0.5037 0,0.90677 0.100319,0.38733 0.604445,0.99203 0.747954,1.14993 0.10223,0.0927 0.157744,0.29064 0.210217,0.52719 -0.01873,0.0279 -0.0378,0.0591 -0.05667,0.0864 -0.08354,0.12094 -0.167087,0.23515 -0.251733,0.34401 -0.08452,0.10884 -0.169546,0.21166 -0.25569,0.31036 -0.429886,0.49268 -0.890349,0.87355 -1.401005,1.26133 0.03131,-0.0564 0.0537,-0.10534 0.05865,-0.14025 0.04319,-0.22988 0.259231,-0.70489 0.201648,-0.94961 -0.04319,-0.24474 -0.143915,-0.84903 -0.301819,-1.19409 -0.143953,-0.35944 -0.489329,-1.19388 -0.848774,-1.35225 0,0 -0.287374,0.94988 -0.388142,1.29494 -0.101216,0.35944 -0.201457,0.76243 -0.359808,0.94959 -0.04488,0.063 -0.127939,0.20855 -0.218125,0.37693 -0.01697,-0.11704 -0.01697,-0.17165 0.0158,-0.66359 0.05713,-0.66223 -0.993096,-1.69822 -0.993096,-1.69822 0.100767,0.28792 -0.301716,1.43908 -0.502806,1.69822 -0.201547,0.24427 -0.504434,0.99209 -0.54762,1.4379 -0.04321,0.46067 -0.24429,0.74807 -0.402641,0.9496 -0.316712,0.43143 0.05799,2.24386 0.05799,2.24386 0.02015,0.0137 0.04837,0.0176 0.08038,0.0176 -0.279454,0.17419 -0.558047,0.35066 -0.843504,0.51663 -0.208873,0.12133 -0.418195,0.23969 -0.624721,0.35257 -0.206517,0.11275 -0.411415,0.22081 -0.610882,0.3216 -0.139058,0.0687 -0.306321,0.14063 -0.469861,0.21216 -0.05846,0.0256 -0.106951,0.0501 -0.168043,0.0757 0.03952,-0.0384 0.07916,-0.0755 0.117972,-0.11664 0.920883,-0.97848 0.834743,-1.4962 0.993096,-1.53939 0.313275,-0.0546 -0.423479,-0.13108 -0.845483,-0.0903 0.248343,-0.37756 0.589404,-0.8883 0.831647,-1.33576 0.187589,-0.35946 -1.611228,0.11508 -1.611228,0.11508 -0.230835,0.0928 -0.337,0.12893 -0.476448,0.17985 0.149182,-0.53991 0.303401,-1.13053 0.288633,-1.25605 -0.01443,-0.14298 -0.762566,0.10124 -1.36674,0.35983 -0.51825,0.21593 -0.819645,0.63324 -1.265917,0.90677 -0.532193,0.34504 -0.603837,1.20814 -0.848117,1.61122 -0.345498,0.58977 -0.388803,0.89189 -0.388801,1.17892 0.01443,0.44628 -0.244189,0.5898 -0.388146,0.9641 -0.05364,0.13791 -0.151035,0.22744 -0.267547,0.31104 0.198369,-0.73393 0.371353,-2.04141 -0.03425,-2.38354 -0.136756,-0.11138 -0.296025,-0.16405 -0.46261,-0.1779 -0.499754,-0.0419 -1.065878,0.26053 -1.292275,0.33611 -0.287915,0.10085 -0.446134,2.24451 -0.446134,2.24451 l 0.09423,0.13381 c -0.180195,-0.19194 -0.32712,-0.23647 -0.440862,-0.21482 0.02399,-0.0117 0.04547,-0.0197 0.04547,-0.0197 -0.100768,-0.20201 -0.344814,-1.49583 -0.647126,-2.04288 -0.30231,-0.56143 -0.950269,-0.60464 -1.352904,-0.56143 -0.701961,0.0784 -0.789892,0.13498 -0.751245,0.16794 -0.173934,-0.0246 -0.490923,0.0938 -0.341357,1.38586 0.05345,0.46646 0.116606,0.83852 0.18121,1.1407 -0.122809,-0.0864 -0.225953,-0.1775 -0.281387,-0.32026 -0.143953,-0.37428 -0.402988,-0.51785 -0.388144,-0.9641 0,-0.28701 -0.04375,-0.58916 -0.388805,-1.17894 -0.244278,-0.40309 -0.31613,-1.26619 -0.848776,-1.61123 -0.445821,-0.27353 -0.747669,-0.69082 -1.265918,-0.90677 -0.603723,-0.25867 -1.352135,-0.50284 -1.366078,-0.3598 -0.01502,0.12542 0.139565,0.71567 0.288635,1.25538 -0.139409,-0.0507 -0.245824,-0.0866 -0.476448,-0.17926 0,0 -1.798372,-0.4748 -1.611227,-0.11528 0.242238,0.44744 0.583168,0.95821 0.831642,1.33576 -0.422002,-0.0408 -1.158756,0.0357 -0.845481,0.0903 0.158349,0.0433 0.07221,0.56094 0.993096,1.53939 0.03874,0.0412 0.07847,0.0782 0.117972,0.11684 -0.23206,-0.0979 -0.449069,-0.19447 -0.637904,-0.28798 -0.671878,-0.33925 -1.390804,-0.76128 -2.079766,-1.1908 0.03228,-6.6e-4 0.06078,-0.006 0.08105,-0.0176 0,0 0.374699,-1.81243 0.05797,-2.24384 -0.157901,-0.20155 -0.359455,-0.48895 -0.402643,-0.9496 -0.04319,-0.44581 -0.345867,-1.19365 -0.546959,-1.43792 -0.201543,-0.25914 -0.604239,-1.4103 -0.503467,-1.69822 0,0 -1.050019,1.03601 -0.992437,1.69822 0.03287,0.49278 0.03232,0.54671 0.01521,0.66425 -0.09029,-0.16853 -0.173193,-0.31435 -0.218123,-0.37761 -0.158271,-0.18706 -0.258952,-0.59013 -0.359724,-0.94957 -0.100767,-0.34506 -0.388142,-1.29492 -0.388142,-1.29492 -0.359893,0.15819 -0.704816,0.99279 -0.848776,1.35225 -0.1579,0.34504 -0.259081,0.94935 -0.301817,1.19409 -0.05758,0.24472 0.158447,0.71973 0.201649,0.94961 0.0049,0.0349 0.02733,0.0841 0.05865,0.14025 -0.738449,-0.56076 -1.36421,-1.10956 -1.965105,-2.00199 0.05255,-0.23657 0.107907,-0.43452 0.209562,-0.52719 0.143953,-0.1578 0.648286,-0.76262 0.748609,-1.14995 0.100767,-0.40307 0,-0.70479 0,-0.90677 0,-0.20109 0.142998,-0.89162 0.142998,-0.89162 0,0 -0.01716,-0.0511 -0.01912,-0.0581 z m 5.886744,0 h 0.0033 l -0.0033,0.004 z m 0.200991,0 h 9.012982 v 6.7e-4 c 0,0.11781 -0.01599,0.2826 -0.06062,0.36177 l -0.0033,0.006 c -0.06433,0.13712 -0.124585,0.23805 -0.188466,0.34465 -0.04859,0.0804 -0.09821,0.16404 -0.153551,0.26886 -10e-4,0.001 -0.0017,0.001 -0.0014,0.001 v 6.7e-4 h -0.05337 a 1.3732444,1.3517649 0 0 1 0.0072,-0.01 0.91472807,0.93505535 0 0 1 -0.002,-0.0646 0.91472807,0.93505535 0 0 1 0.0033,-0.0605 c -0.137829,0.0416 -0.281412,0.0786 -0.43625,0.11118 -0.234488,0.0517 -0.376538,0.0934 -0.496218,0.13245 -0.342855,-0.0538 -0.705716,-0.1541 -1.045813,-0.1541 -1.233095,-0.35988 -1.449189,-0.71916 -1.89591,-0.93509 H 35.103132 30.423 c -0.002,-0.001 -0.0037,-0.002 -0.0059,-0.006 z m 10.875287,0 h 8.839007 c -3.37e-4,3.4e-4 -6.73e-4,0.001 -0.0014,0.001 h -4.363161 c -0.417031,0.21595 -0.618825,0.57564 -1.770042,0.9351 -0.316355,0 -0.65424,0.0999 -0.973327,0.15351 -0.112003,-0.039 -0.244948,-0.0806 -0.464588,-0.13323 -0.455266,-0.1026 -0.852213,-0.21413 -1.099191,-0.55289 -0.09308,-0.13264 -0.15396,-0.22149 -0.16738,-0.40393 z m -1.159819,0.0823 h 0.177932 a 0.91472807,0.93505535 0 0 1 0.08173,0.048 h 0.03494 c 0.001,0.01 0.0064,0.0209 0.008,0.031 a 0.91472807,0.93505535 0 0 1 0.06328,0.0529 c 0.01131,0.0806 0.02844,0.16287 0.06392,0.22668 0.0585,0.12464 0.113407,0.22121 0.16738,0.31434 0.05444,0.094 0.105683,0.18257 0.16145,0.30181 0.0041,0.01 0.0098,0.0156 0.01638,0.0232 0.0117,0.0117 0.04301,0.0371 0.08173,0.0534 0.0207,0.0265 0.05243,0.0402 0.07445,0.0501 0.0029,0.001 0.0059,0.002 0.0086,0.004 0.02025,0.0197 0.03546,0.0314 0.04941,0.0423 0.0158,0.0117 0.0306,0.0232 0.05536,0.048 0.02251,0.0283 0.04888,0.0523 0.07182,0.0745 0.0252,0.023 0.05071,0.0472 0.06062,0.0665 0.01619,0.0324 0.03558,0.0626 0.05403,0.0928 0.01756,0.0279 0.03375,0.0546 0.0468,0.0796 0.0023,0.006 0.0051,0.008 0.008,0.0117 0.03509,0.0468 0.0608,0.0958 0.09094,0.17126 0.0306,0.0688 0.06899,0.13361 0.105429,0.19582 0.03599,0.0607 0.06923,0.11781 0.0962,0.17867 l 0.17134,0.38552 c 0.0099,0.0289 0.02105,0.0564 0.03228,0.0835 0.02116,0.0509 0.04108,0.0991 0.05009,0.16092 0.02428,0.12133 0.01502,0.25177 -0.02505,0.37233 -0.06117,0.1582 -0.213859,0.24683 -0.367713,0.32423 -0.03195,0.01 -0.05216,0.0353 -0.06655,0.0534 -0.0045,0.006 -0.0099,0.0117 -0.0158,0.0197 -0.02294,0.0117 -0.05001,0.0156 -0.09094,0.0175 -0.0513,0.004 -0.115553,0.008 -0.179903,0.0513 -0.07332,0.0548 -0.135371,0.1225 -0.179903,0.19582 -0.0029,0.006 -0.0049,0.01 -0.0066,0.0156 -0.0059,0.006 -0.03318,0.0156 -0.05204,0.0222 -0.06164,0.0234 -0.121814,0.0449 -0.182536,0.0607 0.154311,-0.44087 -0.05282,-1.0652 -0.170677,-1.4188 -0.166463,-0.5259 -0.253278,-1.04868 -0.337403,-1.55392 -0.04679,-0.28159 -0.09521,-0.57166 -0.156827,-0.85732 z m -0.539715,6.6e-4 h 0.337405 c -0.04994,0.25058 -0.0909,0.50495 -0.130475,0.75192 -0.08727,0.53894 -0.177699,1.09584 -0.365741,1.65999 l -0.0086,0.0277 c -0.119669,0.39856 -0.293371,0.97592 -0.147621,1.38981 -0.05309,-0.0137 -0.10738,-0.0314 -0.16541,-0.0507 l -0.02898,-0.01 -0.01131,-0.006 c -0.02204,-0.01 -0.04065,-0.0197 -0.05007,-0.0328 -0.04904,-0.0823 -0.09956,-0.14805 -0.181892,-0.19835 -0.05489,-0.0416 -0.115261,-0.0455 -0.164766,-0.0494 -0.0396,-0.004 -0.06626,-0.006 -0.0883,-0.0176 -0.0041,-0.006 -0.0078,-0.01 -0.01131,-0.0137 -0.01834,-0.0211 -0.04533,-0.0519 -0.08897,-0.0607 -0.168706,-0.0854 -0.29237,-0.17379 -0.348603,-0.31958 -0.04182,-0.12425 -0.05044,-0.25426 -0.02571,-0.38023 0.0086,-0.0568 0.02828,-0.10533 0.04941,-0.15605 0.01131,-0.0275 0.02241,-0.0548 0.03228,-0.0837 l 0.07711,-0.17321 c 0.03148,-0.0708 0.06209,-0.14161 0.09359,-0.21221 0.03757,-0.0847 0.08298,-0.16306 0.129812,-0.24515 0.05524,-0.0156 0.110208,-0.0314 0.164083,-0.0474 a 1.3732444,1.3517649 0 0 1 -6.75e-4,-0.0203 1.3732444,1.3517649 0 0 1 0.0244,-0.24911 c -0.0059,0.001 -0.0119,0.004 -0.01775,0.006 l 0.002,-0.004 c 0.02746,-0.0548 0.05292,-0.1065 0.0916,-0.15741 l 0.008,-0.0117 c 0.0096,-0.0197 0.03544,-0.0433 0.06062,-0.0665 0.02339,-0.0215 0.04933,-0.0462 0.07182,-0.0745 0.0252,-0.0248 0.0396,-0.0365 0.05534,-0.0488 0.01346,-0.01 0.02852,-0.0216 0.04877,-0.0416 0.0027,-0.001 0.0059,-0.002 0.0086,-0.004 0.02294,-0.01 0.05489,-0.0234 0.07514,-0.0501 0.03689,-0.0156 0.07151,-0.0441 0.08501,-0.079 0.05265,-0.0989 0.100611,-0.17984 0.146957,-0.25765 0.06568,-0.10923 0.127588,-0.21279 0.195067,-0.35585 0.05579,-0.10045 0.07369,-0.25211 0.07908,-0.35783 z m 1.222423,0.0441 h 0.239215 c 0.03464,0.18608 0.116411,0.30329 0.210876,0.43691 0.289714,0.39724 0.732619,0.5241 1.236918,0.63792 0.327058,0.0778 0.472084,0.13381 0.611542,0.18765 0.112919,0.0441 0.230985,0.0893 0.441526,0.14376 0.145319,0.031 0.230756,0.0517 0.282043,0.0651 0.03554,0.0388 0.0994,0.0458 0.150254,0.0527 l 0.340694,0.0423 c 0.278473,0.0351 0.497391,0.0835 0.709732,0.12913 0.381487,0.0829 0.711277,0.15351 1.226376,0.11684 1.089133,-0.0599 1.728303,-0.52288 2.15028,-0.82834 0.04229,-0.0297 0.194357,-0.0868 0.355854,-0.14766 0.429175,-0.16346 1.13989,-0.43274 1.605952,-0.83628 h 3.657389 c -0.07693,0.0416 -0.150722,0.0796 -0.224061,0.11801 -0.325703,0.1701 -0.632652,0.33102 -0.997046,0.63198 -0.03375,0.0324 -0.210638,0.12678 -0.305111,0.17731 -0.08458,0.0454 -0.159325,0.085 -0.194396,0.10942 -0.268571,0.18804 -0.728288,0.32743 -1.173659,0.46194 -0.47776,0.14493 -0.971887,0.29374 -1.286346,0.51597 -0.302761,0.21059 -1.222265,0.41033 -1.613205,0.43957 -0.957318,0.0581 -1.861097,0.11157 -2.802674,-0.0989 -0.156555,-0.0355 -0.256446,-0.0665 -0.345969,-0.0948 -0.128661,-0.0396 -0.239636,-0.0739 -0.456021,-0.10806 -0.102113,-0.0136 -0.280805,-0.0729 -0.436906,-0.12328 -0.136756,-0.0445 -0.26924,-0.0864 -0.356514,-0.10474 -0.179942,-0.0451 -0.206583,-0.0597 -0.239872,-0.079 -0.0513,-0.0289 -0.114714,-0.0642 -0.402641,-0.1502 -0.192991,-0.0546 -0.347408,-0.10494 -0.492268,-0.15214 -0.279818,-0.0919 -0.521473,-0.17146 -0.924559,-0.23987 -0.06657,-0.008 -0.147991,-0.072 -0.225375,-0.13439 l -0.09226,-0.0692 c -0.02743,-0.0137 -0.130826,-0.0971 -0.181209,-0.13634 -0.04003,-0.0328 -0.07531,-0.0593 -0.07711,-0.0593 -0.03554,-0.0324 -0.06275,-0.056 -0.08434,-0.0745 -0.05982,-0.0517 -0.05988,-0.0517 -0.129168,-0.1956 l -0.15355,-0.20957 c -0.03893,-0.0773 -0.06086,-0.13225 -0.08434,-0.18901 0.03029,-0.081 0.05411,-0.16073 0.05994,-0.23458 z m -14.572865,0.004 h 3.92757 c 0.497555,0.404 1.260819,0.67494 1.721937,0.83824 0.172764,0.0613 0.336147,0.11899 0.380234,0.14825 0.45347,0.30591 1.137469,0.76699 2.297232,0.82637 0.552442,0.0386 0.903358,-0.0335 1.311388,-0.11606 0.227187,-0.0458 0.461759,-0.0932 0.760473,-0.12913 l 0.361124,-0.0416 c 0.05982,-0.008 0.124604,-0.0136 0.160124,-0.0536 0.05489,-0.0137 0.149318,-0.0339 0.310384,-0.0659 0.218636,-0.0529 0.342914,-0.0973 0.463927,-0.14103 0.150253,-0.0548 0.305423,-0.11118 0.65767,-0.18901 0.0646,-0.0137 0.125599,-0.0287 0.18716,-0.0435 -10e-4,0.001 -0.0014,6.6e-4 -0.0027,0.002 l -0.0072,0.008 c -0.01443,0.0197 -0.03507,0.0382 -0.05667,0.0581 -0.03375,0.0314 -0.06886,0.0628 -0.09226,0.10611 -0.04363,0.0585 -0.07182,0.11626 -0.100163,0.17322 -0.03076,0.0415 -0.05407,0.0923 -0.07843,0.14512 -0.02032,0.006 -0.04014,0.0117 -0.06062,0.0175 -0.154312,0.0472 -0.319382,0.0971 -0.525872,0.15215 -0.305913,0.085 -0.373909,0.12016 -0.428344,0.14903 -0.03735,0.0197 -0.0656,0.0345 -0.256348,0.079 -0.09806,0.0197 -0.238879,0.0618 -0.384189,0.10553 -0.17725,0.0534 -0.359579,0.10806 -0.472493,0.12386 -0.230336,0.0341 -0.349333,0.0679 -0.486992,0.10807 -0.09626,0.0279 -0.203271,0.0595 -0.368377,0.0948 -1.009507,0.21011 -1.976988,0.15585 -3.016188,0.0983 -0.412979,-0.0283 -1.402594,-0.22898 -1.727871,-0.44086 -0.33515,-0.22135 -0.862935,-0.37006 -1.373988,-0.51404 -0.47776,-0.13537 -0.972213,-0.27472 -1.26328,-0.46457 -0.03644,-0.0224 -0.11608,-0.0634 -0.205606,-0.10806 -0.102113,-0.0511 -0.29373,-0.14688 -0.338716,-0.18765 -0.379692,-0.29062 -0.708193,-0.45183 -1.055043,-0.62142 -0.07873,-0.0384 -0.157374,-0.0765 -0.237892,-0.11742 z m -3.40829,0.17614 c 0.01014,0.2408 0.0088,0.48199 -0.03821,0.64316 -0.0037,0.0137 -0.008,0.0283 -0.0119,0.0429 0.0041,-0.0628 0.01112,-0.1697 0.01131,-0.18707 0,-0.17145 0.02208,-0.31018 0.0389,-0.49884 z m 34.403803,0.004 c 0.01678,0.18686 0.03821,0.325 0.03821,0.49558 1.07e-4,0.0176 0.007,0.12289 0.01131,0.18394 -0.0037,-0.0136 -0.0076,-0.0259 -0.01131,-0.0396 -0.0467,-0.16054 -0.04812,-0.40021 -0.03821,-0.63989 z m -16.270422,0.54103 a 1.3732444,1.3517649 0 0 1 0.153551,0.16736 c -0.01541,-0.0209 -0.0371,-0.0343 -0.06392,-0.0343 -0.0053,-0.001 -0.01658,-0.008 -0.02505,-0.0136 -0.02247,-0.047 -0.04291,-0.0796 -0.06456,-0.11996 z m 0.159481,0.17477 a 1.3732444,1.3517649 0 0 1 0.0072,0.01 c -0.0014,-6.8e-4 -0.0027,-0.002 -0.0039,-0.002 -10e-4,-0.002 -0.002,-0.006 -0.0033,-0.008 z m -18.34821,1.54335 c 0.04036,0.15 0.05323,0.19721 0.09886,0.36379 -0.02585,-0.0454 -0.05189,-0.0874 -0.07777,-0.1344 -0.01014,-0.0731 -0.01443,-0.15234 -0.02108,-0.22935 z m 34.513853,0 c -0.0066,0.0774 -0.01092,0.15722 -0.02109,0.23066 -0.02606,0.0472 -0.05241,0.0893 -0.07843,0.13517 0.04586,-0.16736 0.05893,-0.21483 0.0995,-0.36573 z m -32.827502,0.19311 c -0.172295,0 -0.302478,0.12913 -0.302478,0.30248 0,0.1578 0.129715,0.30183 0.302478,0.30183 0.158349,0 0.301817,-0.14376 0.301817,-0.30183 0,-0.17302 -0.143466,-0.30248 -0.301817,-0.30248 z m 31.141148,0 c -0.158349,0 -0.301812,0.12913 -0.301812,0.30248 0,0.1578 0.143446,0.30183 0.301812,0.30183 0.172764,0 0.30248,-0.14376 0.30248,-0.30183 0,-0.17302 -0.130182,-0.30248 -0.30248,-0.30248 z m -22.710052,0.73543 c -1.004398,0 -1.692199,0.6429 -1.952584,0.90349 0.0117,-0.001 0.661321,-0.055 1.103149,0.14415 l -0.0045,6.7e-4 c 3.38e-4,2.1e-4 10e-4,3.3e-4 0.0014,7e-4 0.0014,6.4e-4 0.0027,6.4e-4 0.0039,0.001 0.106307,0.048 0.300128,0.16736 0.557504,0.32356 -0.124077,-0.0774 -0.310325,-0.18862 -0.561456,-0.32489 l -0.902154,0.20099 c 0.0027,0.004 0.300469,0.40282 0.05735,0.54564 0,0 -0.0033,7e-4 -0.0033,7e-4 l -6.77e-4,6.6e-4 1.596728,-0.30183 c 0,0 -0.06146,-0.0431 -0.184507,-0.11996 0.822373,0.4988 2.336006,1.4023 4.087703,1.81816 2.286689,0.56144 2.84745,0.56146 3.336458,0.56146 0.503402,0 1.049634,-2e-5 3.351617,-0.56146 1.711996,-0.40652 3.198149,-1.2814 4.032349,-1.78652 -0.06587,0.0427 -0.135098,0.0884 -0.135098,0.0884 l 1.59673,0.30183 c -0.0086,-0.006 -0.0117,-0.0117 -0.01912,-0.0175 2.22e-4,6e-5 10e-4,-6e-5 0.0014,0 -0.0078,-0.006 -0.01404,-0.0117 -0.02046,-0.0176 h -6.75e-4 c -6.75e-4,-6.8e-4 -6.75e-4,-0.002 -0.0014,-0.002 -0.01911,-0.0199 -0.0331,-0.0421 -0.04151,-0.0665 -0.0601,-0.17517 0.119708,-0.43522 0.123238,-0.44019 l -0.886953,-0.21293 c 6.75e-4,-3.1e-4 0.0014,-3.7e-4 0.002,-7e-4 l -0.0051,-0.001 c 0.445143,-0.20079 1.08998,-0.14434 1.091943,-0.14434 -0.24644,-0.26043 -0.948855,-0.90348 -1.938743,-0.90348 -1.007257,0 -0.604825,-8e-5 -1.453728,0.35983 -0.848903,0.34549 -2.618338,1.4234 -5.609969,1.4234 h -0.05666 c -2.992528,0 -4.862545,-1.07791 -5.711448,-1.4234 -0.848905,-0.35991 -0.460209,-0.35983 -1.453069,-0.35983 z m 13.865771,0.28338 c 0.175904,-0.01 0.339049,0.0716 0.456024,0.26952 0.18714,0.31624 0.05945,0.60464 -0.228012,0.77694 l -0.166054,0.0936 -0.569365,-0.93248 0.186496,-0.10416 c 0.102581,-0.0648 0.215655,-0.0971 0.320924,-0.10338 z m -13.085527,0.14298 0.19637,0.093 c 0.287913,0.11528 0.461032,0.3695 0.331472,0.71501 -0.143525,0.3311 -0.444107,0.39954 -0.745978,0.26952 l -0.185833,-0.0731 z m -11.658162,0.004 c -0.18714,0 -0.330811,0.15839 -0.330811,0.33082 0,0.18706 0.143661,0.33147 0.330811,0.33147 0.172763,0 0.330808,-0.14415 0.330808,-0.33147 0,-0.17224 -0.158056,-0.33082 -0.330808,-0.33082 z m 36.035454,0 c -0.172295,0 -0.331467,0.15839 -0.331467,0.33082 0,0.18706 0.159168,0.33147 0.331467,0.33147 0.18714,0 0.330151,-0.14415 0.330151,-0.33147 0,-0.17224 -0.142997,-0.33082 -0.330151,-0.33082 z m -11.239702,0.0197 c -0.100767,-0.01 -0.203078,0.0254 -0.311043,0.0823 l -0.03097,0.0316 0.393412,0.64184 0.02111,-0.01 c 0.215936,-0.12972 0.350431,-0.3152 0.206922,-0.55947 -0.07917,-0.1225 -0.178654,-0.17751 -0.27941,-0.18648 z m -13.055216,0.18394 -0.300502,0.70446 0.04151,0.01 c 0.215488,0.10085 0.444306,0.0927 0.559482,-0.16599 0.100319,-0.2735 -0.03899,-0.43828 -0.268869,-0.53905 z m 11.975133,0.0845 0.953556,0.77763 -0.114012,0.0726 -0.228672,-0.18706 -0.424386,0.21813 0.02109,0.2794 -0.135098,0.0726 z m -11.156673,0.10104 0.114675,0.0447 -0.446137,0.99112 -0.115339,-0.0447 z m 14.590003,0.11665 c 0,0 0.0096,0.0256 0.01248,0.0322 0.112256,0.12913 0.103537,0.27151 0.127841,0.3822 0.01443,0.12972 0.01424,0.33133 -0.08567,0.43163 -0.0246,0.0209 -0.0583,0.032 -0.09423,0.0375 0.307122,0.0176 0.665927,-0.0852 0.03954,-0.88369 z m -18.275063,0.0156 c -0.01229,0.0156 -0.02017,0.0293 -0.03162,0.0449 0.0068,-0.01 0.01795,-0.0207 0.02633,-0.031 6.75e-4,-0.001 0.0051,-0.0136 0.0051,-0.0136 z m 14.418006,0.0396 0.0547,0.1028 -0.229986,0.0995 0.404618,0.87774 -0.116645,0.0581 -0.400663,-0.87714 -0.216147,0.0995 -0.05865,-0.11352 z m 0.568703,0.0176 0.03166,0.42505 0.299837,-0.15546 z m -15.038768,0.0156 c -0.609203,0.84365 -0.08735,0.84392 0.202307,0.79672 -0.07174,0.006 -0.149669,6.8e-4 -0.189792,-0.0396 -0.100768,-0.10045 -0.100729,-0.30207 -0.08633,-0.43162 0.02105,-0.0944 0.01287,-0.21273 0.07381,-0.32554 z m 4.284741,0.0548 c 0.07016,-10e-4 0.139214,0.0117 0.20758,0.0416 0.273073,0.13011 0.394128,0.46258 0.279412,0.73611 -0.129558,0.30184 -0.452268,0.42553 -0.724888,0.31036 -0.273521,-0.12971 -0.399089,-0.43742 -0.269527,-0.72488 0.09718,-0.21593 0.296884,-0.35771 0.507423,-0.3631 z m -0.0099,0.166 c -0.146197,10e-4 -0.267348,0.0975 -0.332129,0.24845 -0.100767,0.21595 -0.0062,0.4316 0.166054,0.51797 0.187139,0.0864 0.421046,-0.0156 0.507421,-0.21749 0.08637,-0.20108 0.02967,-0.43158 -0.185833,-0.51796 -0.05081,-0.0211 -0.1074,-0.0314 -0.155521,-0.031 z m 9.428801,0.13576 c 0.100768,0.0137 0.188662,0.10085 0.217468,0.18706 0.05758,0.14395 0.01561,0.301 -0.114012,0.37297 l 0.486992,0.32093 -0.154857,0.0519 -0.445476,-0.30049 -0.04151,0.01 0.154858,0.43493 -0.113349,0.0408 -0.404621,-1.00431 0.144987,-0.062 c 0.08637,-0.0433 0.168746,-0.0669 0.269521,-0.0527 z m -8.409346,0.0936 c 0.03728,2.5e-4 0.07551,0.008 0.111359,0.0216 0.115163,0.0427 0.173212,0.12913 0.18714,0.24449 l -0.115319,0.0289 c -0.01443,-0.072 -0.04313,-0.12972 -0.114676,-0.15878 -0.07198,-0.0289 -0.187354,-6e-5 -0.216145,0.0864 -0.02879,0.0864 0.02864,0.15878 0.07182,0.20163 l 0.07182,0.0574 c 0.114714,0.10084 0.187296,0.21649 0.115319,0.38881 -0.07198,0.18706 -0.258886,0.25876 -0.431637,0.20165 -0.143953,-0.0581 -0.230339,-0.23054 -0.187139,-0.4033 l 0.129812,0.0289 c -0.04317,0.10084 0.01443,0.21579 0.114675,0.25898 0.100767,0.0433 0.216244,-0.0289 0.258982,-0.12913 0.04274,-0.11528 -0.02842,-0.18706 -0.100807,-0.25965 l -0.05733,-0.0573 c -0.08594,-0.0864 -0.157959,-0.18687 -0.100826,-0.33082 0.04319,-0.1186 0.151093,-0.18063 0.262938,-0.17985 z m 8.379036,0.0416 c -0.05624,-0.006 -0.11567,0.0199 -0.166054,0.0415 l -0.03162,0.01 0.135098,0.33146 0.02042,-0.0117 c 0.114734,-0.0427 0.233532,-0.1145 0.175963,-0.25832 -0.02879,-0.072 -0.07845,-0.10865 -0.133772,-0.11391 z m -0.543005,0.0369 0.02899,0.11255 -0.402643,0.14415 0.100163,0.28797 0.388801,-0.12699 0.0435,0.11333 -0.388805,0.1305 0.129168,0.38686 0.403304,-0.14298 0.04283,0.12991 -0.517964,0.17516 -0.35915,-1.02209 z m -6.976053,0.22931 0.115319,0.0435 -0.172666,0.60429 c -0.04321,0.17263 -0.0435,0.34551 0.143641,0.40265 0.201092,0.0585 0.287726,-0.0862 0.345311,-0.25897 l 0.171984,-0.61882 0.115319,0.0429 -0.18714,0.64781 c -0.05758,0.22986 -0.244142,0.37444 -0.474471,0.30246 -0.229887,-0.0572 -0.316468,-0.27314 -0.244485,-0.50345 z m 5.975049,0.10612 c 0.13541,-0.008 0.256399,0.0347 0.310382,0.20758 0.01443,0.072 0.0062,0.18043 -0.05074,0.23789 0.129109,-0.0137 0.240075,0.0817 0.268863,0.19699 0.0576,0.21595 -0.08624,0.34639 -0.258978,0.40397 l -0.228014,0.0519 -0.289951,-1.03592 0.114012,-0.0415 c 0.04679,-0.01 0.0899,-0.0197 0.134454,-0.0209 z m -5.069599,0.0967 0.589793,0.97661 0.158154,-0.77431 0.115318,0.0137 -0.20165,1.12031 -0.603633,-0.99045 -0.158798,0.78879 -0.115319,-0.0136 z m 4.618193,0.0137 0.244483,1.04912 -0.129812,0.0304 -0.244485,-1.05174 z m 0.522577,0.0244 c -0.01619,-0.002 -0.03353,-0.002 -0.05073,6.8e-4 -0.02251,0.004 -0.0473,0.01 -0.07248,0.0203 h -0.04151 l 0.103459,0.31104 0.03162,-0.01 c 0.09987,-0.0283 0.188173,-0.0673 0.144968,-0.19699 -0.02428,-0.081 -0.06655,-0.11723 -0.115319,-0.12523 z m -1.055041,0.0923 0.186496,0.93248 0.302474,-0.0548 0.02834,0.1264 -0.445478,0.0718 -0.201648,-1.06229 z m -3.020802,0.11275 0.114675,0.0137 -0.129831,1.07944 -0.114656,-0.0271 z m 2.330182,0 0.08633,1.12492 -0.834282,-0.77828 0.05735,0.80528 h -0.129812 l -0.08567,-1.12093 0.834281,0.77497 -0.05735,-0.79145 z m -1.538082,0.0455 c 0.287921,0 0.532365,0.2785 0.517968,0.57993 -0.01443,0.33154 -0.271566,0.55344 -0.559481,0.53906 -0.301863,-0.0137 -0.532362,-0.25892 -0.517965,-0.59046 0.01443,-0.30187 0.257168,-0.54291 0.559478,-0.52853 z m -0.02109,0.15546 c -0.215488,0 -0.368476,0.17828 -0.382872,0.39408 0,0.21548 0.160905,0.39897 0.362444,0.41383 0.201094,0 0.38353,-0.15273 0.38353,-0.38352 0.01443,-0.21505 -0.133225,-0.40955 -0.363102,-0.42439 z m 3.483411,0.0283 c -0.02071,-0.001 -0.04223,-0.001 -0.06328,10e-4 -0.02789,0.002 -0.04773,0.0137 -0.07248,0.0203 l -0.06195,0.01 0.08237,0.33211 0.09359,-0.0316 c 0.100768,-0.0283 0.1985,-0.0878 0.154858,-0.21681 -0.0158,-0.0813 -0.07096,-0.1106 -0.133128,-0.11606 z m -13.115183,1.31138 c -0.158349,0 -0.301815,0.12972 -0.301815,0.28799 0,0.17263 0.143447,0.3018 0.301815,0.3018 0.172296,0 0.302476,-0.12894 0.302476,-0.3018 0,-0.15819 -0.130182,-0.28799 -0.302476,-0.28799 z m 19.863224,0 c -0.172764,0 -0.301817,0.12972 -0.301817,0.28799 0,0.17263 0.129071,0.3018 0.301817,0.3018 0.158349,0 0.301817,-0.12894 0.301817,-0.3018 0,-0.15819 -0.143466,-0.28799 -0.301817,-0.28799 z m -22.107735,1.03924 c 0.11171,0.0136 0.228297,0.0339 0.348601,0.0581 0.04841,0.0316 0.09765,0.062 0.146295,0.0936 -0.146275,-0.0511 -0.314063,-0.10182 -0.494896,-0.15156 z m 24.351591,6.6e-4 c -0.179845,0.0496 -0.346604,0.10007 -0.492265,0.15098 0.04832,-0.0312 0.09689,-0.0622 0.144968,-0.0936 0.119825,-0.0238 0.235996,-0.0433 0.347285,-0.0575 z m -14.628153,0.48582 c 0,0 6.75e-4,0 6.75e-4,0 0.460216,0 2.258352,3.00631 2.258352,3.00631 0.0059,-0.0685 0.01814,-0.12738 0.03359,-0.18199 -0.01034,0.11215 -0.03228,0.37558 -0.04414,0.68799 -0.01619,-0.006 -0.03066,-0.01 -0.0468,-0.0137 l -6.75e-4,-0.004 v -6.8e-4 l 0.05799,-0.48829 c -0.395794,-0.20473 -0.755335,-0.29875 -1.070201,-0.34137 -0.312842,-0.0359 -0.677512,-0.0295 -1.08667,0.0731 -0.02032,-0.0137 -0.03968,-0.0265 -0.05932,-0.0396 -0.05922,-0.16034 -0.115884,-0.38833 -0.169369,-0.64317 -0.09078,-0.36638 -0.181776,-0.78946 -0.211534,-1.17036 -0.0017,-0.01 -0.0049,-0.0257 -0.0066,-0.0361 -0.0371,-0.21722 -0.01326,-0.38885 0.03624,-0.51995 6.77e-4,-0.002 10e-4,-0.006 0.002,-0.008 0.002,-0.006 0.0027,-0.0137 0.0045,-0.0197 0.01404,-0.0384 0.03283,-0.0624 0.05007,-0.0915 0.0017,-0.002 0.0033,-0.006 0.0051,-0.01 0.05471,-0.089 0.113446,-0.142 0.163421,-0.16795 0.01834,-0.0117 0.03509,-0.0197 0.05009,-0.0244 0.02044,-0.008 0.03296,-0.01 0.03296,-0.01 z m 2.259014,3.00631 c 0,0 -0.134923,-0.088 -0.371672,-0.17809 0.154799,0.0739 0.371672,0.17809 0.371672,0.17809 z m 1.336427,-2.50351 c 0,0 0.0027,6.6e-4 0.0027,6.6e-4 l 0.459973,0.14415 c 0,0 -6.75e-4,6.9e-4 -6.75e-4,6.9e-4 0.136327,0.0427 0.192933,0.0587 0.315654,0.0995 0.301866,0.10084 0.27302,1.20809 0.330157,1.5104 0.02924,0.20155 -0.100377,0.3876 -0.503467,0.58913 -0.390648,0.19563 -0.951757,0.25296 -0.98585,0.25637 -0.08128,-0.24732 -0.16342,-0.45999 -0.16342,-0.45999 0,0 -6.75e-4,-6.8e-4 -6.75e-4,-6.8e-4 0.101528,-0.4771 0.545639,-2.14038 0.545639,-2.14038 z m -12.771852,0.056 c -0.158349,0 -0.301817,0.14474 -0.301817,0.3025 0,0.17263 0.143915,0.30178 0.301817,0.30178 0.172315,0 0.301817,-0.12913 0.301817,-0.30178 0,-0.1578 -0.129071,-0.3025 -0.301817,-0.3025 z m 23.257673,0 c -0.172296,0 -0.301158,0.14474 -0.301158,0.3025 0,0.17263 0.128856,0.30178 0.301158,0.30178 0.158349,0 0.302476,-0.12913 0.302476,-0.30178 0,-0.1578 -0.14368,-0.3025 -0.302476,-0.3025 z m -8.251848,2.13578 c -10e-4,0.001 -0.0023,0.002 -0.0033,0.004 -0.001,2.8e-4 -0.002,0.001 -0.0033,0.001 0.0023,-0.001 0.0043,-0.004 0.0066,-0.006 z m -6.751337,0.001 c 0.0017,10e-4 0.0029,0.002 0.0045,0.004 -6.73e-4,-1.5e-4 -0.0014,-3.3e-4 -0.002,-6.8e-4 -6.75e-4,-6.8e-4 -0.0017,-10e-4 -0.0027,-0.002 z m 34.426867,1.0959 -1.191452,2.4152 -2.66495,0.38749 1.927543,1.87943 -0.454702,2.65376 2.383561,-1.25275 2.383557,1.25275 -0.45536,-2.65376 1.928859,-1.87943 -2.665606,-0.38749 z m -61.5633459,0.0197 -1.1921092,2.41456 -2.6649475,0.38748 1.9281958,1.87944 -0.4547002,2.65374 2.3835611,-1.25273 2.3829019,1.25273 -0.455362,-2.65374 1.9282,-1.87944 -2.664288,-0.38748 z m 48.1990599,10.86672 -1.19145,2.41456 -2.664947,0.3868 1.928199,1.87943 -0.455361,2.65443 2.383559,-1.25273 2.383563,1.25273 -0.454702,-2.65443 1.928198,-1.87943 -2.665607,-0.3868 z m -34.828189,0.01 -1.192109,2.41521 -2.664289,0.38682 1.928198,1.87943 -0.455361,2.6544 2.383561,-1.25339 2.383561,1.25339 -0.45536,-2.6544 1.928198,-1.87943 -2.664949,-0.38682 z m 17.218707,3.81161 -1.19145,2.41454 -2.664952,0.38681 1.9282,1.87943 -0.4547,2.6544 2.382902,-1.25273 2.383561,1.25273 -0.455362,-2.6544 1.928861,-1.87943 -2.664951,-0.38681 z"
       id="path1569-8" />
  </g>
</svg>
